<?xml version="1.0" encoding="UTF-8" standalone="no"?>
<!-- Created with Inkscape (http://www.inkscape.org/) -->

<svg
   width="113.97704mm"
   height="123.42459mm"
   viewBox="0 0 113.97704 123.42459"
   version="1.1"
   id="svg1"
   xml:space="preserve"
   inkscape:version="1.4.2 (ebf0e940d0, 2025-05-08)"
   sodipodi:docname="viberate.svg"
   inkscape:export-filename="viberate.png"
   inkscape:export-xdpi="192"
   inkscape:export-ydpi="192"
   xmlns:inkscape="http://www.inkscape.org/namespaces/inkscape"
   xmlns:sodipodi="http://sodipodi.sourceforge.net/DTD/sodipodi-0.dtd"
   xmlns:xlink="http://www.w3.org/1999/xlink"
   xmlns="http://www.w3.org/2000/svg"
   xmlns:svg="http://www.w3.org/2000/svg"><sodipodi:namedview
     id="namedview1"
     pagecolor="#ffffff"
     bordercolor="#000000"
     borderopacity="0.25"
     inkscape:showpageshadow="2"
     inkscape:pageopacity="0.0"
     inkscape:pagecheckerboard="0"
     inkscape:deskcolor="#d1d1d1"
     inkscape:document-units="mm"
     inkscape:zoom="1.0244809"
     inkscape:cx="207.91017"
     inkscape:cy="408.01151"
     inkscape:window-width="2560"
     inkscape:window-height="1403"
     inkscape:window-x="0"
     inkscape:window-y="0"
     inkscape:window-maximized="1"
     inkscape:current-layer="layer1" /><defs
     id="defs1"><linearGradient
       id="linearGradient11"
       inkscape:collect="always"><stop
         style="stop-color:#ececec;stop-opacity:1;"
         offset="0"
         id="stop11" /><stop
         style="stop-color:#ececec;stop-opacity:0;"
         offset="1"
         id="stop12" /></linearGradient><linearGradient
       id="linearGradient9"
       inkscape:collect="always"><stop
         style="stop-color:#cccccc;stop-opacity:1;"
         offset="0"
         id="stop9" /><stop
         style="stop-color:#cccccc;stop-opacity:0;"
         offset="1"
         id="stop10" /></linearGradient><linearGradient
       id="linearGradient7"
       inkscape:collect="always"><stop
         style="stop-color:#999999;stop-opacity:1;"
         offset="0"
         id="stop7" /><stop
         style="stop-color:#999999;stop-opacity:0;"
         offset="1"
         id="stop8" /></linearGradient><linearGradient
       id="linearGradient5"
       inkscape:collect="always"><stop
         style="stop-color:#ececec;stop-opacity:0;"
         offset="0"
         id="stop5" /><stop
         style="stop-color:#ececec;stop-opacity:1;"
         offset="1"
         id="stop6" /></linearGradient><linearGradient
       id="linearGradient3"
       inkscape:collect="always"><stop
         style="stop-color:#cccccc;stop-opacity:0;"
         offset="0"
         id="stop3" /><stop
         style="stop-color:#cccccc;stop-opacity:1;"
         offset="1"
         id="stop4" /></linearGradient><linearGradient
       id="linearGradient1"
       inkscape:collect="always"><stop
         style="stop-color:#999999;stop-opacity:0;"
         offset="0"
         id="stop1" /><stop
         style="stop-color:#999999;stop-opacity:1;"
         offset="1"
         id="stop2" /></linearGradient><linearGradient
       inkscape:collect="always"
       xlink:href="#linearGradient1"
       id="linearGradient2"
       x1="90"
       y1="81.712298"
       x2="143.97704"
       y2="81.712298"
       gradientUnits="userSpaceOnUse" /><linearGradient
       inkscape:collect="always"
       xlink:href="#linearGradient3"
       id="linearGradient4"
       x1="99.999997"
       y1="81.712298"
       x2="153.97704"
       y2="81.712298"
       gradientUnits="userSpaceOnUse" /><linearGradient
       inkscape:collect="always"
       xlink:href="#linearGradient5"
       id="linearGradient6"
       x1="110"
       y1="81.712283"
       x2="163.97704"
       y2="81.712283"
       gradientUnits="userSpaceOnUse" /><linearGradient
       inkscape:collect="always"
       xlink:href="#linearGradient7"
       id="linearGradient8"
       x1="70"
       y1="81.712298"
       x2="123.97705"
       y2="81.712298"
       gradientUnits="userSpaceOnUse" /><linearGradient
       inkscape:collect="always"
       xlink:href="#linearGradient9"
       id="linearGradient10"
       x1="60"
       y1="81.712293"
       x2="113.97704"
       y2="81.712293"
       gradientUnits="userSpaceOnUse" /><linearGradient
       inkscape:collect="always"
       xlink:href="#linearGradient11"
       id="linearGradient12"
       x1="50"
       y1="81.712278"
       x2="103.97704"
       y2="81.712278"
       gradientUnits="userSpaceOnUse" /></defs><g
     inkscape:label="Layer 1"
     inkscape:groupmode="layer"
     id="layer1"
     transform="translate(-50,-20)"><path
       style="fill:url(#linearGradient6);stroke-width:0.312113"
       d="m 111.57251,143.41962 c -0.002,-0.0357 0.18476,-1.0762 0.41439,-2.31223 0.22963,-1.23605 0.51022,-2.74903 0.62354,-3.36219 0.55506,-3.00343 1.32207,-7.11762 1.69349,-9.0838 0.22737,-1.20361 0.57894,-3.08024 0.78127,-4.1703 0.20232,-1.09004 0.53461,-2.85521 0.73841,-3.92255 0.2038,-1.06734 0.77548,-4.1047 1.27041,-6.74968 l 0.89987,-4.80907 0.68595,-0.80637 c 3.27171,-3.84613 5.4147,-6.22626 7.86382,-8.734073 1.56497,-1.60245 1.49918,-1.63694 0.76715,0.40217 -0.20984,0.584533 -0.38141,1.086203 -0.38125,1.114823 1.5e-4,0.0286 0.73408,-0.69472 1.63095,-1.607413 3.65657,-3.72108 7.59501,-7.17977 11.78803,-10.35211 1.17392,-0.88815 1.19431,-0.90679 1.14171,-1.04385 -0.0358,-0.0932 -0.31021,-0.11611 -1.39017,-0.11611 h -1.34564 l -0.77198,0.59528 c -1.86621,1.43908 -4.93276,4.01853 -6.79833,5.7185 -4.33606,3.95114 -7.56057,7.344643 -13.30372,14.000893 -0.95624,1.10828 -3.13508,3.77005 -4.24185,5.18202 -0.47176,0.60187 -0.86815,1.08391 -0.88084,1.07122 -0.0127,-0.0126 0.008,-0.16256 0.0468,-0.33303 0.0405,-0.17939 0.32295,-0.64799 0.67069,-1.11251 1.04894,-1.40125 2.79761,-3.65085 3.83749,-4.93676 0.55324,-0.68415 1.04423,-1.31588 1.09108,-1.40386 0.0468,-0.088 0.17936,-0.66163 0.29447,-1.27479 0.11511,-0.61315 0.45307,-2.36596 0.75102,-3.89511 l 0.54174,-2.780283 1.42527,-1.39987 c 2.16665,-2.12801 3.93634,-3.79816 7.29022,-6.88015 2.28238,-2.09735 2.96277,-2.71129 2.9827,-2.69136 0.0167,0.0167 -0.99174,2.88653 -2.30521,6.56041 -0.24763,0.69263 -0.43487,1.25934 -0.41608,1.25934 0.0188,0 0.52468,-0.4511 1.12419,-1.00245 2.0561,-1.8909 4.2661,-3.75207 7.65899,-6.45008 l 0.28518,-0.22677 -0.66989,0.0116 c -0.36844,0.007 -0.70828,-0.0122 -0.75518,-0.0411 -0.11721,-0.0724 -1.94268,-2.63422 -1.95267,-2.74029 -0.004,-0.0469 0.58654,-0.63803 1.31324,-1.31356 0.7267,-0.67552 1.51802,-1.41277 1.75848,-1.63831 0.24046,-0.22556 0.44856,-0.39626 0.46243,-0.37934 0.0139,0.0169 -0.0202,0.51385 -0.0755,1.10429 -0.0555,0.59045 -0.12764,1.43586 -0.16046,1.8787 l -0.0596,0.80515 h 1.77362 1.77362 l 1.13862,-0.76386 1.13863,-0.76386 -0.64524,-0.0244 c -0.54995,-0.0207 -0.66656,-0.0513 -0.7896,-0.20645 -0.0794,-0.10016 -0.74211,-0.85103 -1.47269,-1.66856 -0.73058,-0.817551 -1.32929,-1.527017 -1.33043,-1.576587 -9.4e-4,-0.04958 0.24875,-0.32768 0.55532,-0.618022 0.30658,-0.290341 1.24141,-1.188489 2.07739,-1.995895 0.83598,-0.807396 1.53265,-1.455315 1.54814,-1.439823 0.0155,0.01546 -0.0285,0.898466 -0.0979,1.962155 -0.0694,1.063689 -0.13426,2.194108 -0.14428,2.512041 l -0.0182,0.578059 1.82235,0.02221 1.82235,0.02212 0.73763,-0.467654 c 4.99164,-3.164731 8.90732,-5.385961 12.38441,-7.025244 1.54314,-0.727517 1.77248,-0.818137 1.77248,-0.700338 0,0.04349 -0.288,0.215495 -0.63999,0.382349 -2.62114,1.242444 -7.07421,3.768028 -11.48687,6.514833 l -2.0108,1.251686 0.73081,0.04171 c 0.60459,0.03449 0.79847,0.08135 1.12256,0.27157 0.45244,0.2655 0.34968,0.29707 1.54262,-0.473925 1.18848,-0.768117 3.73794,-2.284409 5.45655,-3.245275 2.44941,-1.369457 7.21539,-3.733839 7.31854,-3.630679 0.0166,0.01659 -0.7036,0.422246 -1.60036,0.90154 -3.26931,1.747335 -7.73029,4.383895 -10.87027,6.424649 l -1.03127,0.67024 0.31284,0.48401 c 0.17205,0.2662 0.40203,0.75631 0.51104,1.08911 0.35719,1.09038 0.22578,3.25448 -0.26741,4.4038 -0.0954,0.22242 -0.11151,0.12535 -0.15723,-0.94967 -0.0437,-1.02599 -0.0901,-1.32745 -0.32403,-2.10578 -0.29392,-0.97767 -0.64842,-1.76049 -0.92044,-2.03251 -0.0934,-0.0934 -0.18331,-0.15596 -0.20003,-0.13924 -0.0167,0.0167 0.13712,0.54936 0.34188,1.18364 0.42327,1.31126 0.51121,1.95206 0.37018,2.69751 -0.10802,0.57094 -0.48572,1.80041 -0.58729,1.9117 -0.0352,0.0386 -0.044,-0.46501 -0.0195,-1.1191 l 0.0445,-1.18925 -0.55313,-1.27573 c -0.30423,-0.70165 -0.5879,-1.31082 -0.6304,-1.3537 -0.0806,-0.0814 -0.73987,0.35025 -3.20114,2.09542 -1.10656,0.7846 -1.3403,0.98495 -1.30725,1.12059 0.0221,0.0908 0.10725,0.38813 0.18917,0.66064 0.11019,0.36662 0.14708,0.75321 0.14188,1.48644 -0.007,1.09943 -0.22113,2.01164 -0.69524,2.97289 l -0.24437,0.49547 0.0395,-0.33032 c 0.25435,-2.12796 0.25243,-2.30119 -0.0383,-3.46836 -0.18194,-0.73024 -0.40002,-1.27999 -0.50779,-1.27999 -0.0916,0 -0.0884,0.11824 0.0189,0.69843 0.0489,0.26456 0.11945,0.85666 0.15677,1.3158 0.0625,0.76914 0.0517,0.88348 -0.13646,1.45413 -0.20799,0.63048 -0.84746,2.01443 -0.90447,1.95743 -0.0172,-0.0173 0.007,-0.23247 0.0535,-0.47827 0.0467,-0.24579 0.12283,-0.78723 0.16927,-1.2032 0.0743,-0.6659 0.0642,-0.83863 -0.0845,-1.44516 -0.27038,-1.10205 -0.33587,-1.3082 -0.41566,-1.3082 -0.10079,0 -2.83237,2.13162 -4.35338,3.3972 -2.9118,2.42284 -5.37035,4.68621 -8.20838,7.55671 -2.72118,2.752343 -2.82576,2.874003 -3.04591,3.543373 -0.10376,0.31546 -0.80016,2.28297 -1.54756,4.37225 -1.94869,5.4474 -2.37788,6.64285 -3.36495,9.37283 -2.28631,6.32337 -4.22876,11.72636 -4.54236,12.63475 -0.14896,0.43148 -0.69909,1.97367 -1.22251,3.42707 -2.75403,7.64726 -3.76506,10.39684 -3.77175,10.25761 z m 32.91841,-57.431963 c 0.49226,-0.35228 1.31177,-0.91898 1.82115,-1.25935 0.50938,-0.34036 0.92745,-0.6467 0.92903,-0.68077 9.4e-4,-0.034 -0.61484,-0.0619 -1.36982,-0.0619 h -1.37271 l -0.75374,0.50786 c -0.41454,0.27933 -0.9345,0.63865 -1.15546,0.7985 l -0.40172,0.29065 0.27786,0.1445 c 0.15282,0.0795 0.44352,0.31472 0.64601,0.52278 0.2025,0.20805 0.39432,0.37828 0.42629,0.37828 0.032,0 0.46087,-0.28823 0.95312,-0.64051 z M 110.00037,108.3157 c 0,-0.0322 0.054,-0.32639 0.11999,-0.65376 0.2364,-1.17271 2.69147,-13.693853 3.17695,-16.202843 1.66635,-8.61178 2.04247,-10.550205 2.4436,-12.593449 0.2452,-1.249033 0.83938,-4.277661 1.32039,-6.730282 0.48102,-2.45263 1.11251,-5.667052 1.40332,-7.143174 0.29081,-1.476122 0.662,-3.389916 0.82486,-4.252871 0.40866,-2.165457 1.28462,-5.3306 2.14385,-7.746548 1.5953,-4.485629 3.51071,-7.701325 6.40055,-10.745628 1.84397,-1.942538 4.19645,-4.856955 8.13686,-10.08053 2.60811,-3.457427 4.1016,-5.242014 5.87765,-7.023237 3.5472,-3.557547 6.46938,-5.006572 10.35157,-5.133015 1.51772,-0.04943 2.60528,0.07474 3.87354,0.442273 2.39726,0.694698 4.89966,3.013562 5.58327,5.173773 0.11214,0.354346 0.20388,0.708214 0.20388,0.78638 0,0.07816 -0.12872,0.211435 -0.28605,0.296163 -0.35512,0.191246 -2.45507,2.275925 -3.10211,3.079535 -0.26337,0.327116 -0.60251,0.845928 -0.75365,1.152914 -0.44069,0.895173 -0.42686,1.303241 0.12865,3.797779 0.25422,1.141554 0.46221,2.121503 0.46221,2.177667 0,0.05613 -0.24742,0.348136 -0.54984,0.648824 -1.05064,1.044652 -1.91502,2.64056 -2.46139,4.544496 -0.38532,1.342752 -0.51757,2.2599 -0.62024,4.301511 -0.33858,6.732119 -0.90967,10.572707 -2.15701,14.505911 -0.79194,2.497177 -2.21418,5.617792 -3.47898,7.633425 -2.84144,4.528255 -6.56464,8.440934 -17.24073,18.118213 -5.00069,4.53284 -7.87092,7.20267 -10.50857,9.77488 -0.53381,0.52057 -0.98493,0.93112 -1.00247,0.91233 -0.0175,-0.0187 0.098,-0.7537 0.25684,-1.63315 l 0.28875,-1.59899 2.35906,-3.27322 c 10.57505,-14.673105 13.85227,-19.680598 17.02244,-26.009684 2.10183,-4.196207 3.58394,-8.360586 4.38411,-12.31827 0.45695,-2.260107 0.57735,-3.256381 0.63385,-5.244358 0.15195,-5.346946 -1.15073,-7.494204 -5.16595,-8.515255 -0.42596,-0.108316 -0.82078,-0.196938 -0.87742,-0.196938 -0.0912,0 -0.24899,0.480203 -0.18029,0.548882 0.0149,0.01486 0.38016,0.116602 0.8118,0.226098 2.7392,0.694857 3.98568,1.862999 4.54824,4.262405 0.16796,0.716381 0.1837,0.988885 0.18134,3.138041 -0.003,2.63497 -0.10194,3.54757 -0.65702,6.05425 -1.30692,5.901901 -3.97106,11.893353 -8.5809,19.297824 -0.62674,1.006697 -3.55266,5.41047 -4.47166,6.730273 -2.23192,3.205312 -3.49858,4.992892 -6.84634,9.661872 -3.02026,4.21224 -7.47428,10.54133 -12.75617,18.126313 -1.29783,1.86371 -1.24078,1.78541 -1.24078,1.70317 z m 43.68569,-80.174862 c 0.46472,-0.31628 0.61851,-0.594994 0.61851,-1.120886 0,-0.586131 -0.23793,-0.95571 -0.76556,-1.189101 -0.55387,-0.245002 -1.02915,-0.149246 -1.47572,0.297313 -0.40498,0.404976 -0.51579,0.802634 -0.36445,1.307779 0.10107,0.337353 0.40701,0.689151 0.70639,0.812295 0.34381,0.141424 0.99554,0.08677 1.28083,-0.1074 z m 8.13753,9.661866 c -0.0891,-0.735138 -0.30703,-1.570324 -0.52163,-1.9993 -0.14502,-0.28988 -0.64789,-0.842086 -1.72011,-1.888827 -0.83336,-0.813556 -1.53554,-1.543327 -1.56042,-1.621725 -0.0734,-0.231222 0.23881,-1.097254 0.58186,-1.614096 0.39065,-0.588532 2.07958,-2.423391 2.73495,-2.971239 0.26461,-0.221208 0.54393,-0.454858 0.6207,-0.519217 0.12689,-0.106378 0.17854,-0.03941 0.56792,0.736532 0.88732,1.768211 1.39015,3.882256 1.28387,5.397908 -0.0729,1.040279 -0.32394,2.007362 -0.75993,2.927992 -0.33194,0.700935 -1.07401,1.985519 -1.14698,1.985519 -0.0153,0 -0.0514,-0.195094 -0.0802,-0.433547 z m -2.93582,-1.245372 c 0,-0.01499 -0.14946,-0.707888 -0.33212,-1.539697 -0.18267,-0.831809 -0.32134,-1.523163 -0.30816,-1.53634 0.0131,-0.01321 0.57693,0.526795 1.25278,1.199949 l 1.22883,1.223908 -0.4836,0.14058 c -0.26597,0.07732 -0.66046,0.230207 -0.87663,0.339749 -0.38112,0.19313 -0.4811,0.228846 -0.4811,0.171851 z"
       id="path1-2-6-7-3" /><path
       style="fill:url(#linearGradient12);stroke-width:0.312113"
       d="m 51.572513,143.41961 c -0.002,-0.0357 0.18476,-1.0762 0.41439,-2.31223 0.22963,-1.23605 0.51022,-2.74903 0.62354,-3.36219 0.55506,-3.00343 1.32207,-7.11762 1.69349,-9.0838 0.22737,-1.20361 0.57894,-3.08024 0.78127,-4.1703 0.20232,-1.09004 0.53461,-2.85521 0.73841,-3.92255 0.2038,-1.06734 0.77548,-4.1047 1.27041,-6.74968 l 0.89987,-4.80907 0.68595,-0.80637 c 3.27171,-3.84612 5.4147,-6.22625 7.86382,-8.734062 1.56497,-1.602451 1.49918,-1.636941 0.76715,0.40217 -0.20984,0.584532 -0.38141,1.086202 -0.38125,1.114822 1.5e-4,0.0286 0.73408,-0.69472 1.63095,-1.607412 3.65657,-3.721081 7.59501,-7.179771 11.78803,-10.352111 1.17392,-0.88815 1.19431,-0.90679 1.14171,-1.04385 -0.0358,-0.0932 -0.31021,-0.11611 -1.39017,-0.11611 h -1.34564 l -0.77198,0.59528 c -1.86621,1.43908 -4.93276,4.01853 -6.79833,5.7185 -4.33606,3.95114 -7.56057,7.344643 -13.30372,14.000883 -0.95624,1.10828 -3.13508,3.77005 -4.24185,5.18202 -0.47176,0.60187 -0.86815,1.08391 -0.88084,1.07122 -0.0127,-0.0126 0.008,-0.16256 0.0468,-0.33303 0.0405,-0.17939 0.32295,-0.64799 0.67069,-1.11251 1.04894,-1.40125 2.79761,-3.65085 3.83749,-4.93676 0.55324,-0.68415 1.04423,-1.31587 1.09108,-1.40385 0.0468,-0.088 0.17936,-0.66163 0.29447,-1.27479 0.11511,-0.61315 0.45307,-2.36596 0.75102,-3.89511 l 0.54174,-2.780282 1.42527,-1.399871 c 2.16665,-2.12801 3.93634,-3.79816 7.29022,-6.88015 2.28238,-2.09735 2.96277,-2.71129 2.9827,-2.69136 0.0167,0.0167 -0.99174,2.88653 -2.30521,6.56041 -0.24763,0.69263 -0.43487,1.25934 -0.41608,1.25934 0.0188,0 0.52468,-0.4511 1.12419,-1.00245 2.0561,-1.8909 4.2661,-3.75207 7.65899,-6.45008 l 0.28518,-0.22677 -0.66989,0.0116 c -0.36844,0.007 -0.70828,-0.0122 -0.75518,-0.0411 -0.11721,-0.0724 -1.94268,-2.63422 -1.95267,-2.74029 -0.004,-0.0469 0.58654,-0.63803 1.31324,-1.31356 0.7267,-0.67552 1.51802,-1.41277 1.75848,-1.63831 0.24046,-0.22556 0.44856,-0.39626 0.46243,-0.37934 0.0139,0.0169 -0.0202,0.51385 -0.0755,1.10429 -0.0555,0.59045 -0.12764,1.43586 -0.16046,1.8787 l -0.0596,0.80515 h 1.77362 1.77362 l 1.13862,-0.76386 1.13863,-0.76386 -0.64524,-0.0244 c -0.54995,-0.0207 -0.66656,-0.0513 -0.7896,-0.20645 -0.0794,-0.10016 -0.74211,-0.85103 -1.47269,-1.66856 -0.73058,-0.817551 -1.32929,-1.527017 -1.33043,-1.576587 -9.4e-4,-0.04958 0.24875,-0.32768 0.55532,-0.618022 0.30658,-0.290341 1.24141,-1.188489 2.07739,-1.995895 0.83598,-0.807396 1.53265,-1.455315 1.54814,-1.439823 0.0155,0.01546 -0.0285,0.898466 -0.0979,1.962155 -0.0694,1.063689 -0.13426,2.194108 -0.14428,2.512041 l -0.0182,0.578059 1.82235,0.02221 1.82235,0.02212 0.73763,-0.467654 c 4.99164,-3.164731 8.90732,-5.385961 12.384407,-7.025244 1.54314,-0.727517 1.77248,-0.818137 1.77248,-0.700338 0,0.04349 -0.288,0.215495 -0.63999,0.382349 -2.621137,1.242444 -7.074207,3.768028 -11.486867,6.514833 l -2.0108,1.251686 0.73081,0.04171 c 0.60459,0.03449 0.79847,0.08135 1.12256,0.27157 0.45244,0.2655 0.34968,0.29707 1.54262,-0.473925 1.18848,-0.768117 3.73794,-2.284409 5.45655,-3.245275 2.44941,-1.369457 7.215387,-3.733839 7.318537,-3.630679 0.0166,0.01659 -0.7036,0.422246 -1.60036,0.90154 -3.269307,1.747335 -7.730287,4.383895 -10.870267,6.424649 l -1.03127,0.67024 0.31284,0.48401 c 0.17205,0.2662 0.40203,0.75631 0.51104,1.08911 0.35719,1.09038 0.22578,3.25448 -0.26741,4.4038 -0.0954,0.22242 -0.11151,0.12535 -0.15723,-0.94967 -0.0437,-1.02599 -0.0901,-1.32745 -0.32403,-2.10578 -0.29392,-0.97767 -0.64842,-1.76049 -0.92044,-2.03251 -0.0934,-0.0934 -0.18331,-0.15596 -0.20003,-0.13924 -0.0167,0.0167 0.13712,0.54936 0.34188,1.18364 0.42327,1.31126 0.51121,1.95206 0.37018,2.69751 -0.10802,0.57094 -0.48572,1.80041 -0.58729,1.9117 -0.0352,0.0386 -0.044,-0.46501 -0.0195,-1.1191 l 0.0445,-1.18925 -0.55313,-1.27573 c -0.30423,-0.70165 -0.5879,-1.31082 -0.6304,-1.3537 -0.0806,-0.0814 -0.73987,0.35025 -3.20114,2.09542 -1.10656,0.7846 -1.3403,0.98495 -1.30725,1.12059 0.0221,0.0908 0.10725,0.38813 0.18917,0.66064 0.11019,0.36662 0.14708,0.75321 0.14188,1.48644 -0.007,1.09943 -0.22113,2.01164 -0.69524,2.97289 l -0.24437,0.49547 0.0395,-0.33032 c 0.25435,-2.12796 0.25243,-2.30119 -0.0383,-3.46836 -0.18194,-0.73024 -0.40002,-1.27999 -0.50779,-1.27999 -0.0916,0 -0.0884,0.11824 0.0189,0.69843 0.0489,0.26456 0.11945,0.85666 0.15677,1.3158 0.0625,0.76914 0.0517,0.88348 -0.13646,1.45413 -0.20799,0.63048 -0.84746,2.01443 -0.90447,1.95743 -0.0172,-0.0173 0.007,-0.23247 0.0535,-0.47827 0.0467,-0.24579 0.12283,-0.78723 0.16927,-1.2032 0.0743,-0.6659 0.0642,-0.83863 -0.0845,-1.44516 -0.27038,-1.10205 -0.33587,-1.3082 -0.41566,-1.3082 -0.10079,0 -2.83237,2.13162 -4.35338,3.3972 -2.9118,2.42284 -5.37035,4.68621 -8.20838,7.556711 -2.72118,2.752342 -2.82576,2.874002 -3.04591,3.543372 -0.10376,0.31546 -0.80016,2.28297 -1.54756,4.37224 -1.94869,5.4474 -2.37788,6.64285 -3.36495,9.37283 -2.28631,6.32337 -4.22876,11.72636 -4.54236,12.63475 -0.14896,0.43148 -0.69909,1.97367 -1.22251,3.42707 -2.75403,7.64726 -3.76506,10.39684 -3.77175,10.25761 z m 32.91841,-57.431953 c 0.49226,-0.35228 1.31177,-0.91898 1.82115,-1.25935 0.50938,-0.34036 0.92745,-0.6467 0.92903,-0.68077 9.4e-4,-0.034 -0.61484,-0.0619 -1.36982,-0.0619 h -1.37271 l -0.75374,0.50786 c -0.41454,0.27933 -0.9345,0.63865 -1.15546,0.7985 l -0.40172,0.29065 0.27786,0.1445 c 0.15282,0.0795 0.44352,0.31472 0.64601,0.52278 0.2025,0.20805 0.39432,0.37828 0.42629,0.37828 0.032,0 0.46087,-0.28823 0.95312,-0.64051 z m -34.49055,22.328033 c 0,-0.0322 0.054,-0.32639 0.11999,-0.65376 0.2364,-1.1727 2.69147,-13.693843 3.17695,-16.202833 1.66635,-8.61178 2.04247,-10.550205 2.4436,-12.593449 0.2452,-1.249033 0.83938,-4.277661 1.32039,-6.730282 0.48102,-2.45263 1.11251,-5.667052 1.40332,-7.143174 0.29081,-1.476122 0.662,-3.389916 0.82486,-4.252871 0.40866,-2.165457 1.28462,-5.3306 2.14385,-7.746548 1.5953,-4.485629 3.51071,-7.701325 6.40055,-10.745628 1.84397,-1.942538 4.19645,-4.856955 8.13686,-10.08053 2.60811,-3.457427 4.1016,-5.242014 5.87765,-7.023237 3.5472,-3.557547 6.46938,-5.006572 10.35157,-5.133015 1.51772,-0.04943 2.60528,0.07474 3.87354,0.442273 2.39726,0.694698 4.899657,3.013562 5.583267,5.173773 0.11214,0.354346 0.20388,0.708214 0.20388,0.78638 0,0.07816 -0.12872,0.211435 -0.28605,0.296163 -0.35512,0.191246 -2.455067,2.275925 -3.102107,3.079535 -0.26337,0.327116 -0.60251,0.845928 -0.75365,1.152914 -0.44069,0.895173 -0.42686,1.303241 0.12865,3.797779 0.25422,1.141554 0.46221,2.121503 0.46221,2.177667 0,0.05613 -0.24742,0.348136 -0.54984,0.648824 -1.05064,1.044652 -1.91502,2.64056 -2.46139,4.544496 -0.38532,1.342752 -0.51757,2.2599 -0.62024,4.301511 -0.33858,6.732119 -0.90967,10.572707 -2.15701,14.505911 -0.79194,2.497177 -2.21418,5.617792 -3.47898,7.633425 -2.84144,4.528255 -6.56464,8.440934 -17.24073,18.118213 -5.00069,4.53284 -7.87092,7.20267 -10.50857,9.77488 -0.53381,0.52057 -0.98493,0.93112 -1.00247,0.91233 -0.0175,-0.0187 0.098,-0.7537 0.25684,-1.63315 l 0.28875,-1.59899 2.35906,-3.27322 c 10.57505,-14.673105 13.85227,-19.680598 17.02244,-26.009684 2.10183,-4.196207 3.58394,-8.360586 4.38411,-12.31827 0.45695,-2.260107 0.57735,-3.256381 0.63385,-5.244358 0.15195,-5.346946 -1.15073,-7.494204 -5.16595,-8.515255 -0.42596,-0.108316 -0.82078,-0.196938 -0.87742,-0.196938 -0.0912,0 -0.24899,0.480203 -0.18029,0.548882 0.0149,0.01486 0.38016,0.116602 0.8118,0.226098 2.7392,0.694857 3.98568,1.862999 4.54824,4.262405 0.16796,0.716381 0.1837,0.988885 0.18134,3.138041 -0.003,2.63497 -0.10194,3.54757 -0.65702,6.05425 -1.30692,5.901901 -3.97106,11.893353 -8.5809,19.297824 -0.62674,1.006697 -3.55266,5.41047 -4.47166,6.730273 -2.23192,3.205312 -3.49858,4.992892 -6.84634,9.661872 -3.02026,4.21224 -7.47428,10.541331 -12.75617,18.126313 -1.29783,1.8637 -1.24078,1.7854 -1.24078,1.70316 z m 43.68569,-80.174852 c 0.46472,-0.31628 0.61851,-0.594994 0.61851,-1.120886 0,-0.586131 -0.23793,-0.95571 -0.76556,-1.189101 -0.55387,-0.245002 -1.02915,-0.149246 -1.47572,0.297313 -0.40498,0.404976 -0.51579,0.802634 -0.36445,1.307779 0.10107,0.337353 0.40701,0.689151 0.70639,0.812295 0.34381,0.141424 0.99554,0.08677 1.28083,-0.1074 z m 8.137527,9.661866 c -0.0891,-0.735138 -0.30703,-1.570324 -0.52163,-1.9993 -0.14502,-0.28988 -0.64789,-0.842086 -1.720107,-1.888827 -0.83336,-0.813556 -1.53554,-1.543327 -1.56042,-1.621725 -0.0734,-0.231222 0.23881,-1.097254 0.58186,-1.614096 0.39065,-0.588532 2.079577,-2.423391 2.734947,-2.971239 0.26461,-0.221208 0.54393,-0.454858 0.6207,-0.519217 0.12689,-0.106378 0.17854,-0.03941 0.56792,0.736532 0.88732,1.768211 1.39015,3.882256 1.28387,5.397908 -0.0729,1.040279 -0.32394,2.007362 -0.75993,2.927992 -0.33194,0.700935 -1.07401,1.985519 -1.14698,1.985519 -0.0153,0 -0.0514,-0.195094 -0.0802,-0.433547 z m -2.935817,-1.245372 c 0,-0.01499 -0.14946,-0.707888 -0.33212,-1.539697 -0.18267,-0.831809 -0.32134,-1.523163 -0.30816,-1.53634 0.0131,-0.01321 0.57693,0.526795 1.25278,1.199949 l 1.228827,1.223908 -0.4836,0.14058 c -0.265967,0.07732 -0.660457,0.230207 -0.876627,0.339749 -0.38112,0.19313 -0.4811,0.228846 -0.4811,0.171851 z"
       id="path1-2-6-7-3-2" /><path
       style="fill:url(#linearGradient10);stroke-width:0.312113"
       d="m 61.572513,143.41963 c -0.002,-0.0357 0.18476,-1.0762 0.41439,-2.31223 0.22963,-1.23605 0.51022,-2.74903 0.62354,-3.36219 0.55506,-3.00343 1.32207,-7.11763 1.69349,-9.0838 0.22737,-1.20361 0.57894,-3.08024 0.78127,-4.1703 0.20232,-1.09005 0.53461,-2.85521 0.73841,-3.92255 0.2038,-1.06734 0.77548,-4.10471 1.27041,-6.74969 l 0.89987,-4.80908 0.68595,-0.80637 c 3.27171,-3.84613 5.4147,-6.22626 7.86382,-8.734066 1.56497,-1.602445 1.49918,-1.636935 0.76715,0.40217 -0.20984,0.584526 -0.38141,1.086196 -0.38125,1.114816 1.5e-4,0.0286 0.73408,-0.69472 1.63095,-1.607406 3.65657,-3.721072 7.59501,-7.179771 11.78803,-10.352103 1.17392,-0.888156 1.19431,-0.906798 1.14171,-1.043857 -0.0358,-0.09316 -0.31021,-0.116103 -1.39017,-0.116103 h -1.34564 l -0.77198,0.595276 c -1.86621,1.439083 -4.93276,4.018529 -6.79833,5.718496 -4.33606,3.951141 -7.56057,7.344637 -13.30372,14.000907 -0.95624,1.10828 -3.13508,3.77005 -4.24185,5.18202 -0.47176,0.60187 -0.86815,1.08391 -0.88084,1.07122 -0.0127,-0.0126 0.008,-0.16256 0.0468,-0.33303 0.0405,-0.1794 0.32295,-0.64799 0.67069,-1.11252 1.04894,-1.40124 2.79761,-3.65084 3.83749,-4.93676 0.55324,-0.68415 1.04423,-1.31588 1.09108,-1.40386 0.0468,-0.088 0.17936,-0.66163 0.29447,-1.27479 0.11511,-0.61316 0.45307,-2.36597 0.75102,-3.89512 l 0.54174,-2.780276 1.42527,-1.399865 c 2.16665,-2.128015 3.93634,-3.79816 7.29022,-6.880153 2.28238,-2.097349 2.96277,-2.711285 2.9827,-2.691359 0.0167,0.01668 -0.99174,2.886535 -2.30521,6.560411 -0.24763,0.692633 -0.43487,1.259342 -0.41608,1.259342 0.0188,0 0.52468,-0.451102 1.12419,-1.00245 2.0561,-1.890899 4.2661,-3.752077 7.65899,-6.450082 l 0.28518,-0.226769 -0.66989,0.01162 c -0.36844,0.0066 -0.70828,-0.01218 -0.75518,-0.04114 -0.11721,-0.07245 -1.94268,-2.634226 -1.95267,-2.740291 -0.004,-0.04686 0.58654,-0.638032 1.31324,-1.313561 0.7267,-0.675521 1.51802,-1.412766 1.75848,-1.638308 0.24046,-0.225561 0.44856,-0.396267 0.46243,-0.37934 0.0139,0.01687 -0.0202,0.513849 -0.0755,1.104289 -0.0555,0.590449 -0.12764,1.435859 -0.16046,1.878695 l -0.0596,0.805157 h 1.77362 1.77362 l 1.13862,-0.763863 1.13863,-0.763862 -0.64524,-0.02437 c -0.54995,-0.02071 -0.66656,-0.05127 -0.7896,-0.206451 -0.0794,-0.100161 -0.74211,-0.851024 -1.47269,-1.668561 -0.73058,-0.817547 -1.32929,-1.527013 -1.33043,-1.576583 -9.4e-4,-0.04958 0.24875,-0.32768 0.55532,-0.618022 0.30658,-0.290341 1.24141,-1.188489 2.07739,-1.995895 0.83598,-0.807396 1.53265,-1.455315 1.54814,-1.439823 0.0155,0.01546 -0.0285,0.898466 -0.0979,1.962155 -0.0694,1.063689 -0.13426,2.194108 -0.14428,2.512041 l -0.0182,0.578059 1.82235,0.02221 1.82235,0.02212 0.73763,-0.467654 c 4.991637,-3.164731 8.907317,-5.385961 12.384407,-7.025244 1.54314,-0.727517 1.77248,-0.818137 1.77248,-0.700338 0,0.04349 -0.288,0.215495 -0.63999,0.382349 -2.62114,1.242444 -7.07421,3.768028 -11.486867,6.514833 l -2.0108,1.251686 0.73081,0.04171 c 0.60459,0.03449 0.79847,0.08135 1.12256,0.271569 0.452437,0.265505 0.349677,0.297071 1.542617,-0.473924 1.18848,-0.768117 3.73794,-2.284409 5.45655,-3.245275 2.44941,-1.369457 7.21539,-3.733839 7.31854,-3.630679 0.0166,0.01659 -0.7036,0.422246 -1.60036,0.90154 -3.26931,1.747335 -7.73029,4.383895 -10.87027,6.424645 l -1.03127,0.670244 0.31284,0.484009 c 0.17205,0.266198 0.40203,0.756308 0.51104,1.089115 0.35719,1.090381 0.22578,3.254479 -0.26741,4.403792 -0.0954,0.222421 -0.11151,0.125354 -0.15723,-0.949666 -0.0437,-1.025994 -0.0901,-1.327451 -0.32403,-2.105784 -0.29392,-0.977662 -0.648417,-1.760484 -0.920437,-2.032503 -0.0934,-0.09335 -0.18331,-0.155963 -0.20003,-0.139243 -0.0167,0.01668 0.13712,0.549361 0.34188,1.183644 0.423267,1.311255 0.511207,1.952052 0.370177,2.697507 -0.10802,0.570936 -0.485717,1.80041 -0.587287,1.911695 -0.0352,0.03861 -0.044,-0.465002 -0.0195,-1.119097 l 0.0445,-1.189248 -0.55313,-1.275726 c -0.30423,-0.701659 -0.5879,-1.310824 -0.6304,-1.353702 -0.0806,-0.08135 -0.73987,0.350249 -3.20114,2.095418 -1.10656,0.784604 -1.3403,0.984953 -1.30725,1.120588 0.0221,0.09082 0.10725,0.388131 0.18917,0.660637 0.11019,0.366622 0.14708,0.753216 0.14188,1.486441 -0.007,1.099434 -0.22113,2.01164 -0.69524,2.972891 l -0.24437,0.495471 0.0395,-0.330314 c 0.25435,-2.127968 0.25243,-2.301195 -0.0383,-3.468362 -0.18194,-0.730245 -0.40002,-1.27999 -0.50779,-1.27999 -0.0916,0 -0.0884,0.11824 0.0189,0.698426 0.0489,0.264559 0.11945,0.856666 0.15677,1.315801 0.0625,0.769139 0.0517,0.88348 -0.13646,1.454135 -0.20799,0.630477 -0.84746,2.014424 -0.90447,1.957422 -0.0172,-0.01725 0.007,-0.232468 0.0535,-0.478264 0.0467,-0.245795 0.12283,-0.787237 0.16927,-1.203203 0.0743,-0.665895 0.0642,-0.838634 -0.0845,-1.445156 -0.27038,-1.102049 -0.33587,-1.3082 -0.41566,-1.3082 -0.10079,0 -2.83237,2.131613 -4.35338,3.397198 -2.9118,2.422836 -5.37035,4.686205 -8.20838,7.556705 -2.72118,2.752336 -2.82576,2.873996 -3.04591,3.543366 -0.10376,0.31546 -0.80016,2.28298 -1.54756,4.37226 -1.94869,5.4474 -2.37788,6.64285 -3.36495,9.37283 -2.28631,6.32337 -4.22876,11.72636 -4.54236,12.63475 -0.14896,0.43148 -0.69909,1.97367 -1.22251,3.42708 -2.75403,7.64726 -3.76506,10.39684 -3.77175,10.25761 z m 32.91841,-57.43197 c 0.49226,-0.352282 1.31177,-0.918982 1.82115,-1.259352 0.50938,-0.340361 0.92745,-0.646701 0.92903,-0.680769 9.4e-4,-0.03402 -0.61484,-0.06186 -1.36982,-0.06186 h -1.37271 l -0.75374,0.507861 c -0.41454,0.279329 -0.9345,0.63865 -1.15546,0.798502 l -0.40172,0.290641 0.27786,0.144501 c 0.15282,0.07948 0.44352,0.314728 0.64601,0.522781 0.2025,0.208054 0.39432,0.378281 0.42629,0.378281 0.032,0 0.46087,-0.288232 0.95312,-0.640505 z m -34.49055,22.32805 c 0,-0.0322 0.054,-0.32639 0.11999,-0.65376 0.2364,-1.17271 2.69147,-13.693859 3.17695,-16.202854 1.66635,-8.61178 2.04247,-10.550204 2.4436,-12.593448 0.2452,-1.249033 0.83938,-4.277661 1.32039,-6.730282 0.48102,-2.45263 1.11251,-5.667052 1.40332,-7.143174 0.29081,-1.476122 0.662,-3.389916 0.82486,-4.252871 0.40866,-2.165457 1.28462,-5.3306 2.14385,-7.746548 1.5953,-4.485629 3.51071,-7.701325 6.40055,-10.745628 1.84397,-1.942538 4.19645,-4.856955 8.13686,-10.08053 2.60811,-3.457427 4.1016,-5.242014 5.87765,-7.023237 3.5472,-3.557547 6.46938,-5.006572 10.351567,-5.133015 1.51772,-0.04943 2.60528,0.07474 3.87354,0.442273 2.39726,0.694698 4.89966,3.013562 5.58327,5.173773 0.11214,0.354346 0.20388,0.708214 0.20388,0.78638 0,0.07816 -0.12872,0.211435 -0.28605,0.296163 -0.35512,0.191246 -2.45507,2.275925 -3.10211,3.079535 -0.26337,0.327116 -0.60251,0.845928 -0.75365,1.152914 -0.44069,0.895173 -0.42686,1.303241 0.12865,3.797779 0.25422,1.141554 0.46221,2.121503 0.46221,2.177667 0,0.05613 -0.24742,0.348136 -0.54984,0.648824 -1.05064,1.044652 -1.91502,2.64056 -2.46139,4.544496 -0.38532,1.342752 -0.51757,2.2599 -0.62024,4.301511 -0.33858,6.732119 -0.90967,10.572707 -2.15701,14.505911 -0.79194,2.497177 -2.21418,5.617792 -3.478977,7.633425 -2.84144,4.528255 -6.56464,8.440934 -17.24073,18.118212 -5.00069,4.532837 -7.87092,7.202669 -10.50857,9.774879 -0.53381,0.52057 -0.98493,0.931119 -1.00247,0.912337 -0.0175,-0.01874 0.098,-0.753703 0.25684,-1.633153 l 0.28875,-1.598992 2.35906,-3.273223 c 10.57505,-14.673102 13.85227,-19.680595 17.02244,-26.009681 2.10183,-4.196207 3.58394,-8.360586 4.38411,-12.31827 0.45695,-2.260107 0.57735,-3.256381 0.63385,-5.244358 0.15195,-5.346946 -1.15073,-7.494204 -5.16595,-8.515255 -0.42596,-0.108316 -0.82078,-0.196938 -0.87742,-0.196938 -0.0912,0 -0.24899,0.480203 -0.18029,0.548882 0.0149,0.01486 0.38016,0.116602 0.8118,0.226098 2.7392,0.694857 3.98568,1.862999 4.54824,4.262405 0.16796,0.716381 0.1837,0.988885 0.18134,3.138041 -0.003,2.63497 -0.10194,3.54757 -0.65702,6.05425 -1.30692,5.901901 -3.97106,11.893353 -8.5809,19.297824 -0.62674,1.006697 -3.55266,5.41047 -4.47166,6.730273 -2.23192,3.205312 -3.49858,4.992891 -6.84634,9.66187 -3.02026,4.212242 -7.47428,10.541329 -12.75617,18.126325 -1.29783,1.86371 -1.24078,1.78541 -1.24078,1.70317 z M 103.68606,28.140838 c 0.46472,-0.31628 0.61851,-0.594994 0.61851,-1.120886 0,-0.586131 -0.23793,-0.95571 -0.76556,-1.189101 -0.55387,-0.245002 -1.02915,-0.149246 -1.47572,0.297313 -0.40498,0.404976 -0.51579,0.802634 -0.36445,1.307779 0.10107,0.337353 0.40701,0.689151 0.70639,0.812295 0.34381,0.141424 0.99554,0.08677 1.28083,-0.1074 z m 8.13753,9.661866 c -0.0891,-0.735138 -0.30703,-1.570324 -0.52163,-1.9993 -0.14502,-0.28988 -0.64789,-0.842086 -1.72011,-1.888827 -0.83336,-0.813556 -1.53554,-1.543327 -1.56042,-1.621725 -0.0734,-0.231222 0.23881,-1.097254 0.58186,-1.614096 0.39065,-0.588532 2.07958,-2.423391 2.73495,-2.971239 0.26461,-0.221208 0.54393,-0.454858 0.6207,-0.519217 0.12689,-0.106378 0.17854,-0.03941 0.56792,0.736532 0.88732,1.768211 1.39015,3.882256 1.28387,5.397908 -0.0729,1.040279 -0.32394,2.007362 -0.75993,2.927992 -0.33194,0.700935 -1.07401,1.985519 -1.14698,1.985519 -0.0153,0 -0.0514,-0.195094 -0.0802,-0.433547 z m -2.93582,-1.245372 c 0,-0.01499 -0.14946,-0.707888 -0.33212,-1.539697 -0.18267,-0.831809 -0.32134,-1.523163 -0.30816,-1.53634 0.0131,-0.01321 0.57693,0.526795 1.25278,1.199949 l 1.22883,1.223908 -0.4836,0.14058 c -0.26597,0.07732 -0.66046,0.230207 -0.87663,0.339749 -0.38112,0.19313 -0.4811,0.228846 -0.4811,0.171851 z"
       id="path1-2-6-7" /><path
       style="fill:url(#linearGradient4);stroke-width:0.312113"
       d="m 101.57251,143.41964 c -0.002,-0.0357 0.18476,-1.0762 0.41439,-2.31223 0.22963,-1.23605 0.51022,-2.74903 0.62354,-3.36219 0.55506,-3.00343 1.32207,-7.11763 1.69349,-9.0838 0.22737,-1.20361 0.57894,-3.08024 0.78127,-4.1703 0.20232,-1.09005 0.53461,-2.85521 0.73841,-3.92255 0.2038,-1.06734 0.77548,-4.10471 1.27041,-6.74969 l 0.89987,-4.80908 0.68595,-0.80638 c 3.27171,-3.84613 5.4147,-6.22626 7.86382,-8.734066 1.56497,-1.602445 1.49918,-1.636935 0.76715,0.40217 -0.20984,0.584526 -0.38141,1.086196 -0.38125,1.114816 1.5e-4,0.0286 0.73408,-0.69472 1.63095,-1.607406 3.65657,-3.721072 7.59501,-7.179771 11.78803,-10.352103 1.17392,-0.888156 1.19431,-0.906798 1.14171,-1.043857 -0.0358,-0.09316 -0.31021,-0.116103 -1.39017,-0.116103 h -1.34564 l -0.77198,0.595276 c -1.86621,1.439083 -4.93276,4.018529 -6.79833,5.718496 -4.33606,3.951141 -7.56057,7.344637 -13.30372,14.000907 -0.95624,1.10829 -3.13508,3.77006 -4.24185,5.18203 -0.47176,0.60187 -0.86815,1.08391 -0.88084,1.07122 -0.0127,-0.0126 0.008,-0.16256 0.0468,-0.33303 0.0405,-0.1794 0.32295,-0.64799 0.67069,-1.11252 1.04894,-1.40124 2.79761,-3.65084 3.83749,-4.93677 0.55324,-0.68415 1.04423,-1.31588 1.09108,-1.40386 0.0468,-0.088 0.17936,-0.66163 0.29447,-1.27479 0.11511,-0.61316 0.45307,-2.36597 0.75102,-3.89512 l 0.54174,-2.780276 1.42527,-1.399865 c 2.16665,-2.128015 3.93634,-3.79816 7.29022,-6.880153 2.28238,-2.097349 2.96277,-2.711285 2.9827,-2.691359 0.0167,0.01668 -0.99174,2.886535 -2.30521,6.560411 -0.24763,0.692633 -0.43487,1.259342 -0.41608,1.259342 0.0188,0 0.52468,-0.451102 1.12419,-1.00245 2.0561,-1.890899 4.2661,-3.752077 7.65899,-6.450082 l 0.28518,-0.226769 -0.66989,0.01162 c -0.36844,0.0066 -0.70828,-0.01218 -0.75518,-0.04114 -0.11721,-0.07245 -1.94268,-2.634226 -1.95267,-2.740291 -0.004,-0.04686 0.58654,-0.638032 1.31324,-1.313561 0.7267,-0.675521 1.51802,-1.412766 1.75848,-1.638308 0.24046,-0.225561 0.44856,-0.396267 0.46243,-0.37934 0.0139,0.01687 -0.0202,0.513849 -0.0755,1.104289 -0.0555,0.590449 -0.12764,1.435859 -0.16046,1.878695 l -0.0596,0.805157 h 1.77362 1.77362 l 1.13862,-0.763863 1.13863,-0.763862 -0.64524,-0.02437 c -0.54995,-0.02071 -0.66656,-0.05127 -0.7896,-0.206451 -0.0794,-0.100161 -0.74211,-0.851024 -1.47269,-1.668561 -0.73058,-0.817547 -1.32929,-1.527013 -1.33043,-1.576583 -9.4e-4,-0.04958 0.24875,-0.32768 0.55532,-0.618022 0.30658,-0.290341 1.24141,-1.188489 2.07739,-1.995895 0.83598,-0.807396 1.53265,-1.455315 1.54814,-1.439823 0.0155,0.01546 -0.0285,0.898466 -0.0979,1.962155 -0.0694,1.063689 -0.13426,2.194108 -0.14428,2.512041 l -0.0182,0.578059 1.82235,0.02221 1.82235,0.02212 0.73763,-0.467654 c 4.99164,-3.164731 8.90732,-5.385961 12.38441,-7.025244 1.54314,-0.727517 1.77248,-0.818137 1.77248,-0.700338 0,0.04349 -0.288,0.215495 -0.63999,0.382349 -2.62114,1.242444 -7.07421,3.768028 -11.48687,6.514833 l -2.0108,1.251686 0.73081,0.04171 c 0.60459,0.03449 0.79847,0.08135 1.12256,0.271569 0.45244,0.265505 0.34968,0.297071 1.54262,-0.473924 1.18848,-0.768117 3.73794,-2.284409 5.45655,-3.245275 2.44941,-1.369457 7.21539,-3.733839 7.31854,-3.630679 0.0166,0.01659 -0.7036,0.422246 -1.60036,0.90154 -3.26931,1.747335 -7.73029,4.383895 -10.87027,6.424645 l -1.03127,0.670244 0.31284,0.484009 c 0.17205,0.266198 0.40203,0.756308 0.51104,1.089115 0.35719,1.090381 0.22578,3.254479 -0.26741,4.403792 -0.0954,0.222421 -0.11151,0.125354 -0.15723,-0.949666 -0.0437,-1.025994 -0.0901,-1.327451 -0.32403,-2.105784 -0.29392,-0.977662 -0.64842,-1.760484 -0.92044,-2.032503 -0.0934,-0.09335 -0.18331,-0.155963 -0.20003,-0.139243 -0.0167,0.01668 0.13712,0.549361 0.34188,1.183644 0.42327,1.311255 0.51121,1.952052 0.37018,2.697507 -0.10802,0.570936 -0.48572,1.80041 -0.58729,1.911695 -0.0352,0.03861 -0.044,-0.465002 -0.0195,-1.119097 l 0.0445,-1.189248 -0.55313,-1.275726 c -0.30423,-0.701659 -0.5879,-1.310824 -0.6304,-1.353702 -0.0806,-0.08135 -0.73987,0.350249 -3.20114,2.095418 -1.10656,0.784604 -1.3403,0.984953 -1.30725,1.120588 0.0221,0.09082 0.10725,0.388131 0.18917,0.660637 0.11019,0.366622 0.14708,0.753216 0.14188,1.486441 -0.007,1.099434 -0.22113,2.01164 -0.69524,2.972891 l -0.24437,0.495471 0.0395,-0.330314 c 0.25435,-2.127968 0.25243,-2.301195 -0.0383,-3.468362 -0.18194,-0.730245 -0.40002,-1.27999 -0.50779,-1.27999 -0.0916,0 -0.0884,0.11824 0.0189,0.698426 0.0489,0.264559 0.11945,0.856666 0.15677,1.315801 0.0625,0.769139 0.0517,0.88348 -0.13646,1.454135 -0.20799,0.630477 -0.84746,2.014424 -0.90447,1.957422 -0.0172,-0.01725 0.007,-0.232468 0.0535,-0.478264 0.0467,-0.245795 0.12283,-0.787237 0.16927,-1.203203 0.0743,-0.665895 0.0642,-0.838634 -0.0845,-1.445156 -0.27038,-1.102049 -0.33587,-1.3082 -0.41566,-1.3082 -0.10079,0 -2.83237,2.131613 -4.35338,3.397198 -2.9118,2.422836 -5.37035,4.686205 -8.20838,7.556705 -2.72118,2.752336 -2.82576,2.873996 -3.04591,3.543366 -0.10376,0.31546 -0.80016,2.28298 -1.54756,4.37226 -1.94869,5.44741 -2.37788,6.64286 -3.36495,9.37284 -2.28631,6.32337 -4.22876,11.72636 -4.54236,12.63475 -0.14896,0.43148 -0.69909,1.97367 -1.22251,3.42708 -2.75403,7.64726 -3.76506,10.39684 -3.77175,10.25761 z m 32.91841,-57.43198 c 0.49226,-0.352282 1.31177,-0.918982 1.82115,-1.259352 0.50938,-0.340361 0.92745,-0.646701 0.92903,-0.680769 9.4e-4,-0.03402 -0.61484,-0.06186 -1.36982,-0.06186 h -1.37271 l -0.75374,0.507861 c -0.41454,0.279329 -0.9345,0.63865 -1.15546,0.798502 l -0.40172,0.290641 0.27786,0.144501 c 0.15282,0.07948 0.44352,0.314728 0.64601,0.522781 0.2025,0.208054 0.39432,0.378281 0.42629,0.378281 0.032,0 0.46087,-0.288232 0.95312,-0.640505 z m -34.49055,22.32805 c 0,-0.0322 0.054,-0.32639 0.11999,-0.65376 0.2364,-1.17271 2.69147,-13.693859 3.17695,-16.202854 1.66635,-8.61178 2.04247,-10.550204 2.4436,-12.593448 0.2452,-1.249033 0.83938,-4.277661 1.32039,-6.730282 0.48102,-2.45263 1.11251,-5.667052 1.40332,-7.143174 0.29081,-1.476122 0.662,-3.389916 0.82486,-4.252871 0.40866,-2.165457 1.28462,-5.3306 2.14385,-7.746548 1.5953,-4.485629 3.51071,-7.701325 6.40055,-10.745628 1.84397,-1.942538 4.19645,-4.856955 8.13686,-10.08053 2.60811,-3.457427 4.1016,-5.242014 5.87765,-7.023237 3.5472,-3.557547 6.46938,-5.006572 10.35157,-5.133015 1.51772,-0.04943 2.60528,0.07474 3.87354,0.442273 2.39726,0.694698 4.89966,3.013562 5.58327,5.173773 0.11214,0.354346 0.20388,0.708214 0.20388,0.78638 0,0.07816 -0.12872,0.211435 -0.28605,0.296163 -0.35512,0.191246 -2.45507,2.275925 -3.10211,3.079535 -0.26337,0.327116 -0.60251,0.845928 -0.75365,1.152914 -0.44069,0.895173 -0.42686,1.303241 0.12865,3.797779 0.25422,1.141554 0.46221,2.121503 0.46221,2.177667 0,0.05613 -0.24742,0.348136 -0.54984,0.648824 -1.05064,1.044652 -1.91502,2.64056 -2.46139,4.544496 -0.38532,1.342752 -0.51757,2.2599 -0.62024,4.301511 -0.33858,6.732119 -0.90967,10.572707 -2.15701,14.505911 -0.79194,2.497177 -2.21418,5.617792 -3.47898,7.633425 -2.84144,4.528255 -6.56464,8.440934 -17.24073,18.118212 -5.00069,4.532837 -7.87092,7.202669 -10.50857,9.774879 -0.53381,0.52057 -0.98493,0.931119 -1.00247,0.912337 -0.0175,-0.01874 0.098,-0.753703 0.25684,-1.633153 l 0.28875,-1.598992 2.35906,-3.273223 c 10.57505,-14.673102 13.85227,-19.680595 17.02244,-26.009681 2.10183,-4.196207 3.58394,-8.360586 4.38411,-12.31827 0.45695,-2.260107 0.57735,-3.256381 0.63385,-5.244358 0.15195,-5.346946 -1.15073,-7.494204 -5.16595,-8.515255 -0.42596,-0.108316 -0.82078,-0.196938 -0.87742,-0.196938 -0.0912,0 -0.24899,0.480203 -0.18029,0.548882 0.0149,0.01486 0.38016,0.116602 0.8118,0.226098 2.7392,0.694857 3.98568,1.862999 4.54824,4.262405 0.16796,0.716381 0.1837,0.988885 0.18134,3.138041 -0.003,2.63497 -0.10194,3.54757 -0.65702,6.05425 -1.30692,5.901901 -3.97106,11.893353 -8.5809,19.297824 -0.62674,1.006697 -3.55266,5.41047 -4.47166,6.730273 -2.23192,3.205312 -3.49858,4.992891 -6.84634,9.66187 -3.02026,4.212242 -7.47428,10.541329 -12.75617,18.126325 -1.297827,1.86371 -1.24078,1.78541 -1.24078,1.70317 z m 43.68569,-80.174872 c 0.46472,-0.31628 0.61851,-0.594994 0.61851,-1.120886 0,-0.586131 -0.23793,-0.95571 -0.76556,-1.189101 -0.55387,-0.245002 -1.02915,-0.149246 -1.47572,0.297313 -0.40498,0.404976 -0.51579,0.802634 -0.36445,1.307779 0.10107,0.337353 0.40701,0.689151 0.70639,0.812295 0.34381,0.141424 0.99554,0.08677 1.28083,-0.1074 z m 8.13753,9.661866 c -0.0891,-0.735138 -0.30703,-1.570324 -0.52163,-1.9993 -0.14502,-0.28988 -0.64789,-0.842086 -1.72011,-1.888827 -0.83336,-0.813556 -1.53554,-1.543327 -1.56042,-1.621725 -0.0734,-0.231222 0.23881,-1.097254 0.58186,-1.614096 0.39065,-0.588532 2.07958,-2.423391 2.73495,-2.971239 0.26461,-0.221208 0.54393,-0.454858 0.6207,-0.519217 0.12689,-0.106378 0.17854,-0.03941 0.56792,0.736532 0.88732,1.768211 1.39015,3.882256 1.28387,5.397908 -0.0729,1.040279 -0.32394,2.007362 -0.75993,2.927992 -0.33194,0.700935 -1.07401,1.985519 -1.14698,1.985519 -0.0153,0 -0.0514,-0.195094 -0.0802,-0.433547 z m -2.93582,-1.245372 c 0,-0.01499 -0.14946,-0.707888 -0.33212,-1.539697 -0.18267,-0.831809 -0.32134,-1.523163 -0.30816,-1.53634 0.0131,-0.01321 0.57693,0.526795 1.25278,1.199949 l 1.22883,1.223908 -0.4836,0.14058 c -0.26597,0.07732 -0.66046,0.230207 -0.87663,0.339749 -0.38112,0.19313 -0.4811,0.228846 -0.4811,0.171851 z"
       id="path1-2-6" /><path
       style="fill:url(#linearGradient2);stroke-width:0.312113"
       d="m 91.572513,143.41964 c -0.002,-0.0357 0.18476,-1.0762 0.41439,-2.31223 0.22963,-1.23605 0.51022,-2.74903 0.62354,-3.36219 0.55506,-3.00343 1.32207,-7.11763 1.69349,-9.0838 0.22737,-1.20361 0.57894,-3.08024 0.78127,-4.1703 0.20232,-1.09005 0.53461,-2.85521 0.73841,-3.92255 0.2038,-1.06734 0.77548,-4.10471 1.27041,-6.74969 l 0.89987,-4.80908 0.68595,-0.80638 c 3.271707,-3.84613 5.414697,-6.22626 7.863817,-8.734066 1.56497,-1.602445 1.49918,-1.636935 0.76715,0.40217 -0.20984,0.584526 -0.38141,1.086196 -0.38125,1.114816 1.5e-4,0.0286 0.73408,-0.69472 1.63095,-1.607406 3.65657,-3.721072 7.59501,-7.179771 11.78803,-10.352103 1.17392,-0.888156 1.19431,-0.906798 1.14171,-1.043857 -0.0358,-0.09316 -0.31021,-0.116103 -1.39017,-0.116103 h -1.34564 l -0.77198,0.595276 c -1.86621,1.439083 -4.93276,4.018529 -6.79833,5.718496 -4.33606,3.951141 -7.56057,7.344637 -13.303717,14.000907 -0.95624,1.10829 -3.13508,3.77006 -4.24185,5.18203 -0.47176,0.60187 -0.86815,1.08391 -0.88084,1.07122 -0.0127,-0.0126 0.008,-0.16256 0.0468,-0.33303 0.0405,-0.1794 0.32295,-0.64799 0.67069,-1.11252 1.04894,-1.40124 2.79761,-3.65084 3.83749,-4.93677 0.55324,-0.68415 1.04423,-1.31588 1.09108,-1.40386 0.0468,-0.088 0.17936,-0.66163 0.29447,-1.27479 0.11511,-0.61316 0.45307,-2.36597 0.75102,-3.89512 l 0.54174,-2.780276 1.425267,-1.399865 c 2.16665,-2.128015 3.93634,-3.79816 7.29022,-6.880153 2.28238,-2.097349 2.96277,-2.711285 2.9827,-2.691359 0.0167,0.01668 -0.99174,2.886535 -2.30521,6.560411 -0.24763,0.692633 -0.43487,1.259342 -0.41608,1.259342 0.0188,0 0.52468,-0.451102 1.12419,-1.00245 2.0561,-1.890899 4.2661,-3.752077 7.65899,-6.450082 l 0.28518,-0.226769 -0.66989,0.01162 c -0.36844,0.0066 -0.70828,-0.01218 -0.75518,-0.04114 -0.11721,-0.07245 -1.94268,-2.634226 -1.95267,-2.740291 -0.004,-0.04686 0.58654,-0.638032 1.31324,-1.313561 0.7267,-0.675521 1.51802,-1.412766 1.75848,-1.638308 0.24046,-0.225561 0.44856,-0.396267 0.46243,-0.37934 0.0139,0.01687 -0.0202,0.513849 -0.0755,1.104289 -0.0555,0.590449 -0.12764,1.435859 -0.16046,1.878695 l -0.0596,0.805157 h 1.77362 1.77362 l 1.13862,-0.763863 1.13863,-0.763862 -0.64524,-0.02437 c -0.54995,-0.02071 -0.66656,-0.05127 -0.7896,-0.206451 -0.0794,-0.100161 -0.74211,-0.851024 -1.47269,-1.668561 -0.73058,-0.817547 -1.32929,-1.527013 -1.33043,-1.576583 -9.4e-4,-0.04958 0.24875,-0.32768 0.55532,-0.618022 0.30658,-0.290341 1.24141,-1.188489 2.07739,-1.995895 0.83598,-0.807396 1.53265,-1.455315 1.54814,-1.439823 0.0155,0.01546 -0.0285,0.898466 -0.0979,1.962155 -0.0694,1.063689 -0.13426,2.194108 -0.14428,2.512041 l -0.0182,0.578059 1.82235,0.02221 1.82235,0.02212 0.73763,-0.467654 c 4.99164,-3.164731 8.90732,-5.385961 12.38441,-7.025244 1.54314,-0.727517 1.77248,-0.818137 1.77248,-0.700338 0,0.04349 -0.288,0.215495 -0.63999,0.382349 -2.62114,1.242444 -7.07421,3.768028 -11.48687,6.514833 l -2.0108,1.251686 0.73081,0.04171 c 0.60459,0.03449 0.79847,0.08135 1.12256,0.271569 0.45244,0.265505 0.34968,0.297071 1.54262,-0.473924 1.18848,-0.768117 3.73794,-2.284409 5.45655,-3.245275 2.44941,-1.369457 7.21539,-3.733839 7.31854,-3.630679 0.0166,0.01659 -0.7036,0.422246 -1.60036,0.90154 -3.26931,1.747335 -7.73029,4.383895 -10.87027,6.424645 l -1.03127,0.670244 0.31284,0.484009 c 0.17205,0.266198 0.40203,0.756308 0.51104,1.089115 0.35719,1.090381 0.22578,3.254479 -0.26741,4.403792 -0.0954,0.222421 -0.11151,0.125354 -0.15723,-0.949666 -0.0437,-1.025994 -0.0901,-1.327451 -0.32403,-2.105784 -0.29392,-0.977662 -0.64842,-1.760484 -0.92044,-2.032503 -0.0934,-0.09335 -0.18331,-0.155963 -0.20003,-0.139243 -0.0167,0.01668 0.13712,0.549361 0.34188,1.183644 0.42327,1.311255 0.51121,1.952052 0.37018,2.697507 -0.10802,0.570936 -0.48572,1.80041 -0.58729,1.911695 -0.0352,0.03861 -0.044,-0.465002 -0.0195,-1.119097 l 0.0445,-1.189248 -0.55313,-1.275726 c -0.30423,-0.701659 -0.5879,-1.310824 -0.6304,-1.353702 -0.0806,-0.08135 -0.73987,0.350249 -3.20114,2.095418 -1.10656,0.784604 -1.3403,0.984953 -1.30725,1.120588 0.0221,0.09082 0.10725,0.388131 0.18917,0.660637 0.11019,0.366622 0.14708,0.753216 0.14188,1.486441 -0.007,1.099434 -0.22113,2.01164 -0.69524,2.972891 l -0.24437,0.495471 0.0395,-0.330314 c 0.25435,-2.127968 0.25243,-2.301195 -0.0383,-3.468362 -0.18194,-0.730245 -0.40002,-1.27999 -0.50779,-1.27999 -0.0916,0 -0.0884,0.11824 0.0189,0.698426 0.0489,0.264559 0.11945,0.856666 0.15677,1.315801 0.0625,0.769139 0.0517,0.88348 -0.13646,1.454135 -0.20799,0.630477 -0.84746,2.014424 -0.90447,1.957422 -0.0172,-0.01725 0.007,-0.232468 0.0535,-0.478264 0.0467,-0.245795 0.12283,-0.787237 0.16927,-1.203203 0.0743,-0.665895 0.0642,-0.838634 -0.0845,-1.445156 -0.27038,-1.102049 -0.33587,-1.3082 -0.41566,-1.3082 -0.10079,0 -2.83237,2.131613 -4.35338,3.397198 -2.9118,2.422836 -5.37035,4.686205 -8.20838,7.556705 -2.72118,2.752336 -2.82576,2.873996 -3.04591,3.543366 -0.10376,0.31546 -0.80016,2.28298 -1.54756,4.37226 -1.94869,5.44741 -2.37788,6.64286 -3.36495,9.37284 -2.286307,6.32337 -4.228757,11.72636 -4.542357,12.63475 -0.14896,0.43148 -0.69909,1.97367 -1.22251,3.42708 -2.75403,7.64726 -3.76506,10.39684 -3.77175,10.25761 z M 124.49092,85.98766 c 0.49226,-0.352282 1.31177,-0.918982 1.82115,-1.259352 0.50938,-0.340361 0.92745,-0.646701 0.92903,-0.680769 9.4e-4,-0.03402 -0.61484,-0.06186 -1.36982,-0.06186 h -1.37271 l -0.75374,0.507861 c -0.41454,0.279329 -0.9345,0.63865 -1.15546,0.798502 l -0.40172,0.290641 0.27786,0.144501 c 0.15282,0.07948 0.44352,0.314728 0.64601,0.522781 0.2025,0.208054 0.39432,0.378281 0.42629,0.378281 0.032,0 0.46087,-0.288232 0.95312,-0.640505 z m -34.490547,22.32805 c 0,-0.0322 0.054,-0.32639 0.11999,-0.65376 0.2364,-1.17271 2.69147,-13.693859 3.17695,-16.202854 1.66635,-8.61178 2.04247,-10.550204 2.4436,-12.593448 0.2452,-1.249033 0.83938,-4.277661 1.32039,-6.730282 0.48102,-2.45263 1.11251,-5.667052 1.40332,-7.143174 0.29081,-1.476122 0.662,-3.389916 0.82486,-4.252871 0.40866,-2.165457 1.284617,-5.3306 2.143847,-7.746548 1.5953,-4.485629 3.51071,-7.701325 6.40055,-10.745628 1.84397,-1.942538 4.19645,-4.856955 8.13686,-10.08053 2.60811,-3.457427 4.1016,-5.242014 5.87765,-7.023237 3.5472,-3.557547 6.46938,-5.006572 10.35157,-5.133015 1.51772,-0.04943 2.60528,0.07474 3.87354,0.442273 2.39726,0.694698 4.89966,3.013562 5.58327,5.173773 0.11214,0.354346 0.20388,0.708214 0.20388,0.78638 0,0.07816 -0.12872,0.211435 -0.28605,0.296163 -0.35512,0.191246 -2.45507,2.275925 -3.10211,3.079535 -0.26337,0.327116 -0.60251,0.845928 -0.75365,1.152914 -0.44069,0.895173 -0.42686,1.303241 0.12865,3.797779 0.25422,1.141554 0.46221,2.121503 0.46221,2.177667 0,0.05613 -0.24742,0.348136 -0.54984,0.648824 -1.05064,1.044652 -1.91502,2.64056 -2.46139,4.544496 -0.38532,1.342752 -0.51757,2.2599 -0.62024,4.301511 -0.33858,6.732119 -0.90967,10.572707 -2.15701,14.505911 -0.79194,2.497177 -2.21418,5.617792 -3.47898,7.633425 -2.84144,4.528255 -6.56464,8.440934 -17.24073,18.118212 -5.00069,4.532837 -7.87092,7.202669 -10.50857,9.774879 -0.53381,0.52057 -0.98493,0.931119 -1.00247,0.912337 -0.0175,-0.01874 0.098,-0.753703 0.25684,-1.633153 l 0.28875,-1.598992 2.35906,-3.273223 c 10.57505,-14.673102 13.85227,-19.680595 17.02244,-26.009681 2.10183,-4.196207 3.58394,-8.360586 4.38411,-12.31827 0.45695,-2.260107 0.57735,-3.256381 0.63385,-5.244358 0.15195,-5.346946 -1.15073,-7.494204 -5.16595,-8.515255 -0.42596,-0.108316 -0.82078,-0.196938 -0.87742,-0.196938 -0.0912,0 -0.24899,0.480203 -0.18029,0.548882 0.0149,0.01486 0.38016,0.116602 0.8118,0.226098 2.7392,0.694857 3.98568,1.862999 4.54824,4.262405 0.16796,0.716381 0.1837,0.988885 0.18134,3.138041 -0.003,2.63497 -0.10194,3.54757 -0.65702,6.05425 -1.30692,5.901901 -3.97106,11.893353 -8.5809,19.297824 -0.62674,1.006697 -3.55266,5.41047 -4.47166,6.730273 -2.23192,3.205312 -3.49858,4.992891 -6.84634,9.66187 -3.02026,4.212242 -7.474277,10.541329 -12.756167,18.126325 -1.29783,1.86371 -1.24078,1.78541 -1.24078,1.70317 z M 133.68606,28.140838 c 0.46472,-0.31628 0.61851,-0.594994 0.61851,-1.120886 0,-0.586131 -0.23793,-0.95571 -0.76556,-1.189101 -0.55387,-0.245002 -1.02915,-0.149246 -1.47572,0.297313 -0.40498,0.404976 -0.51579,0.802634 -0.36445,1.307779 0.10107,0.337353 0.40701,0.689151 0.70639,0.812295 0.34381,0.141424 0.99554,0.08677 1.28083,-0.1074 z m 8.13753,9.661866 c -0.0891,-0.735138 -0.30703,-1.570324 -0.52163,-1.9993 -0.14502,-0.28988 -0.64789,-0.842086 -1.72011,-1.888827 -0.83336,-0.813556 -1.53554,-1.543327 -1.56042,-1.621725 -0.0734,-0.231222 0.23881,-1.097254 0.58186,-1.614096 0.39065,-0.588532 2.07958,-2.423391 2.73495,-2.971239 0.26461,-0.221208 0.54393,-0.454858 0.6207,-0.519217 0.12689,-0.106378 0.17854,-0.03941 0.56792,0.736532 0.88732,1.768211 1.39015,3.882256 1.28387,5.397908 -0.0729,1.040279 -0.32394,2.007362 -0.75993,2.927992 -0.33194,0.700935 -1.07401,1.985519 -1.14698,1.985519 -0.0153,0 -0.0514,-0.195094 -0.0802,-0.433547 z m -2.93582,-1.245372 c 0,-0.01499 -0.14946,-0.707888 -0.33212,-1.539697 -0.18267,-0.831809 -0.32134,-1.523163 -0.30816,-1.53634 0.0131,-0.01321 0.57693,0.526795 1.25278,1.199949 l 1.22883,1.223908 -0.4836,0.14058 c -0.26597,0.07732 -0.66046,0.230207 -0.87663,0.339749 -0.38112,0.19313 -0.4811,0.228846 -0.4811,0.171851 z"
       id="path1-2" /><path
       style="fill:url(#linearGradient8);stroke-width:0.312113"
       d="m 71.572513,143.41964 c -0.002,-0.0357 0.18476,-1.0762 0.41439,-2.31223 0.22963,-1.23605 0.51022,-2.74903 0.62354,-3.36219 0.55506,-3.00343 1.32207,-7.11763 1.69349,-9.0838 0.22737,-1.20361 0.57894,-3.08024 0.78127,-4.1703 0.20232,-1.09005 0.53461,-2.85521 0.73841,-3.92255 0.2038,-1.06734 0.77548,-4.10471 1.27041,-6.74969 l 0.89987,-4.80908 0.68595,-0.80638 c 3.27171,-3.84613 5.4147,-6.22626 7.86382,-8.734066 1.56497,-1.602445 1.49918,-1.636935 0.76715,0.40217 -0.20984,0.584526 -0.38141,1.086196 -0.38125,1.114816 1.5e-4,0.0286 0.73408,-0.69472 1.63095,-1.607406 3.65657,-3.721072 7.59501,-7.179771 11.788027,-10.352103 1.17392,-0.888156 1.19431,-0.906798 1.14171,-1.043857 -0.0358,-0.09316 -0.31021,-0.116103 -1.39017,-0.116103 h -1.345637 l -0.77198,0.595276 c -1.86621,1.439083 -4.93276,4.018529 -6.79833,5.718496 -4.33606,3.951141 -7.56057,7.344637 -13.30372,14.000907 -0.95624,1.10829 -3.13508,3.77006 -4.24185,5.18203 -0.47176,0.60187 -0.86815,1.08391 -0.88084,1.07122 -0.0127,-0.0126 0.008,-0.16256 0.0468,-0.33303 0.0405,-0.1794 0.32295,-0.64799 0.67069,-1.11252 1.04894,-1.40124 2.79761,-3.65084 3.83749,-4.93677 0.55324,-0.68415 1.04423,-1.31588 1.09108,-1.40386 0.0468,-0.088 0.17936,-0.66163 0.29447,-1.27479 0.11511,-0.61316 0.45307,-2.36597 0.75102,-3.89512 l 0.54174,-2.780276 1.42527,-1.399865 c 2.16665,-2.128015 3.93634,-3.79816 7.29022,-6.880153 2.28238,-2.097349 2.96277,-2.711285 2.9827,-2.691359 0.0167,0.01668 -0.99174,2.886535 -2.30521,6.560411 -0.24763,0.692633 -0.43487,1.259342 -0.41608,1.259342 0.0188,0 0.52468,-0.451102 1.12419,-1.00245 2.0561,-1.890899 4.2661,-3.752077 7.65899,-6.450082 l 0.28518,-0.226769 -0.66989,0.01162 c -0.36844,0.0066 -0.70828,-0.01218 -0.75518,-0.04114 -0.11721,-0.07245 -1.94268,-2.634226 -1.95267,-2.740291 -0.004,-0.04686 0.58654,-0.638032 1.31324,-1.313561 0.7267,-0.675521 1.51802,-1.412766 1.75848,-1.638308 0.24046,-0.225561 0.44856,-0.396267 0.46243,-0.37934 0.0139,0.01687 -0.0202,0.513849 -0.0755,1.104289 -0.0555,0.590449 -0.12764,1.435859 -0.16046,1.878695 l -0.0596,0.805157 h 1.77362 1.773617 l 1.13862,-0.763863 1.13863,-0.763862 -0.64524,-0.02437 c -0.54995,-0.02071 -0.66656,-0.05127 -0.7896,-0.206451 -0.0794,-0.100161 -0.74211,-0.851024 -1.47269,-1.668561 -0.73058,-0.817547 -1.329287,-1.527013 -1.330427,-1.576583 -9.4e-4,-0.04958 0.24875,-0.32768 0.555317,-0.618022 0.30658,-0.290341 1.24141,-1.188489 2.07739,-1.995895 0.83598,-0.807396 1.53265,-1.455315 1.54814,-1.439823 0.0155,0.01546 -0.0285,0.898466 -0.0979,1.962155 -0.0694,1.063689 -0.13426,2.194108 -0.14428,2.512041 l -0.0182,0.578059 1.82235,0.02221 1.82235,0.02212 0.73763,-0.467654 c 4.99164,-3.164731 8.90732,-5.385961 12.38442,-7.025244 1.54314,-0.727517 1.77248,-0.818137 1.77248,-0.700338 0,0.04349 -0.288,0.215495 -0.63999,0.382349 -2.62114,1.242444 -7.07422,3.768028 -11.48688,6.514833 l -2.0108,1.251686 0.73081,0.04171 c 0.60459,0.03449 0.79847,0.08135 1.12256,0.271569 0.45244,0.265505 0.34968,0.297071 1.54262,-0.473924 1.18848,-0.768117 3.73794,-2.284409 5.45655,-3.245275 2.44942,-1.369457 7.2154,-3.733839 7.31855,-3.630679 0.0166,0.01659 -0.7036,0.422246 -1.60036,0.90154 -3.26931,1.747335 -7.7303,4.383895 -10.87028,6.424645 l -1.03127,0.670244 0.31284,0.484009 c 0.17205,0.266198 0.40203,0.756308 0.51104,1.089115 0.35719,1.090381 0.22578,3.254479 -0.26741,4.403792 -0.0954,0.222421 -0.11151,0.125354 -0.15723,-0.949666 -0.0437,-1.025994 -0.0901,-1.327451 -0.32403,-2.105784 -0.29392,-0.977662 -0.64842,-1.760484 -0.92044,-2.032503 -0.0934,-0.09335 -0.18331,-0.155963 -0.20003,-0.139243 -0.0167,0.01668 0.13712,0.549361 0.34188,1.183644 0.42327,1.311255 0.51121,1.952052 0.37018,2.697507 -0.10802,0.570936 -0.48572,1.80041 -0.58729,1.911695 -0.0352,0.03861 -0.044,-0.465002 -0.0195,-1.119097 l 0.0445,-1.189248 -0.55313,-1.275726 c -0.30423,-0.701659 -0.5879,-1.310824 -0.6304,-1.353702 -0.0806,-0.08135 -0.73987,0.350249 -3.20114,2.095418 -1.10656,0.784604 -1.3403,0.984953 -1.30725,1.120588 0.0221,0.09082 0.10725,0.388131 0.18917,0.660637 0.11019,0.366622 0.14708,0.753216 0.14188,1.486441 -0.007,1.099434 -0.22113,2.01164 -0.69524,2.972891 l -0.24437,0.495471 0.0395,-0.330314 c 0.25435,-2.127968 0.25243,-2.301195 -0.0383,-3.468362 -0.18194,-0.730245 -0.40002,-1.27999 -0.50779,-1.27999 -0.0916,0 -0.0884,0.11824 0.0189,0.698426 0.0489,0.264559 0.11945,0.856666 0.15677,1.315801 0.0625,0.769139 0.0517,0.88348 -0.13646,1.454135 -0.20799,0.630477 -0.84746,2.014424 -0.90447,1.957422 -0.0172,-0.01725 0.007,-0.232468 0.0535,-0.478264 0.0467,-0.245795 0.12283,-0.787237 0.16927,-1.203203 0.0743,-0.665895 0.0642,-0.838634 -0.0845,-1.445156 -0.27038,-1.102049 -0.33587,-1.3082 -0.41566,-1.3082 -0.10079,0 -2.832367,2.131613 -4.353377,3.397198 -2.9118,2.422836 -5.37035,4.686205 -8.20838,7.556705 -2.72118,2.752336 -2.82576,2.873996 -3.04591,3.543366 -0.10376,0.31546 -0.80016,2.28298 -1.54756,4.37226 -1.94869,5.44741 -2.37788,6.64286 -3.36495,9.37284 -2.28631,6.32337 -4.22876,11.72636 -4.54236,12.63475 -0.14896,0.43148 -0.69909,1.97367 -1.22251,3.42708 -2.75403,7.64726 -3.76506,10.39684 -3.77175,10.25761 z M 104.49092,85.98766 c 0.49226,-0.352282 1.31177,-0.918982 1.82115,-1.259352 0.50938,-0.340361 0.92745,-0.646701 0.92903,-0.680769 9.4e-4,-0.03402 -0.61484,-0.06186 -1.36982,-0.06186 h -1.37271 l -0.75374,0.507861 c -0.41454,0.279329 -0.9345,0.63865 -1.15546,0.798502 l -0.40172,0.290641 0.27786,0.144501 c 0.15282,0.07948 0.44352,0.314728 0.64601,0.522781 0.2025,0.208054 0.39432,0.378281 0.42629,0.378281 0.032,0 0.46087,-0.288232 0.95312,-0.640505 z m -34.490547,22.32805 c 0,-0.0322 0.054,-0.32639 0.11999,-0.65376 0.2364,-1.17271 2.69147,-13.693859 3.17695,-16.202854 1.66635,-8.61178 2.04247,-10.550204 2.4436,-12.593448 0.2452,-1.249033 0.83938,-4.277661 1.32039,-6.730282 0.48102,-2.45263 1.11251,-5.667052 1.40332,-7.143174 0.29081,-1.476122 0.662,-3.389916 0.82486,-4.252871 0.40866,-2.165457 1.28462,-5.3306 2.14385,-7.746548 1.5953,-4.485629 3.51071,-7.701325 6.40055,-10.745628 1.84397,-1.942538 4.19645,-4.856955 8.13686,-10.08053 2.60811,-3.457427 4.101597,-5.242014 5.877647,-7.023237 3.5472,-3.557547 6.46938,-5.006572 10.35157,-5.133015 1.51772,-0.04943 2.60528,0.07474 3.87354,0.442273 2.39727,0.694698 4.89967,3.013562 5.58328,5.173773 0.11214,0.354346 0.20388,0.708214 0.20388,0.78638 0,0.07816 -0.12872,0.211435 -0.28605,0.296163 -0.35512,0.191246 -2.45507,2.275925 -3.10211,3.079535 -0.26337,0.327116 -0.60251,0.845928 -0.75366,1.152914 -0.44069,0.895173 -0.42686,1.303241 0.12866,3.797779 0.25422,1.141554 0.46221,2.121503 0.46221,2.177667 0,0.05613 -0.24742,0.348136 -0.54985,0.648824 -1.05064,1.044652 -1.91502,2.64056 -2.46139,4.544496 -0.38532,1.342752 -0.51757,2.2599 -0.62024,4.301511 -0.33858,6.732119 -0.90967,10.572707 -2.15701,14.505911 -0.79194,2.497177 -2.21418,5.617792 -3.47898,7.633425 -2.84144,4.528255 -6.56464,8.440934 -17.240727,18.118212 -5.00069,4.532837 -7.87092,7.202669 -10.50857,9.774879 -0.53381,0.52057 -0.98493,0.931119 -1.00247,0.912337 -0.0175,-0.01874 0.098,-0.753703 0.25684,-1.633153 l 0.28875,-1.598992 2.35906,-3.273223 c 10.57505,-14.673102 13.85227,-19.680595 17.022437,-26.009681 2.10183,-4.196207 3.58394,-8.360586 4.38411,-12.31827 0.45695,-2.260107 0.57735,-3.256381 0.63385,-5.244358 0.15195,-5.346946 -1.15073,-7.494204 -5.16595,-8.515255 -0.425957,-0.108316 -0.820777,-0.196938 -0.877417,-0.196938 -0.0912,0 -0.24899,0.480203 -0.18029,0.548882 0.0149,0.01486 0.38016,0.116602 0.8118,0.226098 2.739197,0.694857 3.985677,1.862999 4.548237,4.262405 0.16796,0.716381 0.1837,0.988885 0.18134,3.138041 -0.003,2.63497 -0.10194,3.54757 -0.65702,6.05425 -1.30692,5.901901 -3.971057,11.893353 -8.580897,19.297824 -0.62674,1.006697 -3.55266,5.41047 -4.47166,6.730273 -2.23192,3.205312 -3.49858,4.992891 -6.84634,9.66187 -3.02026,4.212242 -7.47428,10.541329 -12.75617,18.126325 -1.29783,1.86371 -1.24078,1.78541 -1.24078,1.70317 z M 113.68606,28.140838 c 0.46472,-0.31628 0.61851,-0.594994 0.61851,-1.120886 0,-0.586131 -0.23793,-0.95571 -0.76556,-1.189101 -0.55387,-0.245002 -1.02915,-0.149246 -1.47572,0.297313 -0.40498,0.404976 -0.51579,0.802634 -0.36445,1.307779 0.10107,0.337353 0.40701,0.689151 0.70639,0.812295 0.34381,0.141424 0.99554,0.08677 1.28083,-0.1074 z m 8.13754,9.661866 c -0.0891,-0.735138 -0.30703,-1.570324 -0.52163,-1.9993 -0.14502,-0.28988 -0.64789,-0.842086 -1.72011,-1.888827 -0.83336,-0.813556 -1.53554,-1.543327 -1.56042,-1.621725 -0.0734,-0.231222 0.23881,-1.097254 0.58186,-1.614096 0.39065,-0.588532 2.07958,-2.423391 2.73495,-2.971239 0.26461,-0.221208 0.54393,-0.454858 0.6207,-0.519217 0.12689,-0.106378 0.17854,-0.03941 0.56792,0.736532 0.88732,1.768211 1.39015,3.882256 1.28387,5.397908 -0.0729,1.040279 -0.32394,2.007362 -0.75993,2.927992 -0.33194,0.700935 -1.07401,1.985519 -1.14698,1.985519 -0.0153,0 -0.0514,-0.195094 -0.0802,-0.433547 z m -2.93582,-1.245372 c 0,-0.01499 -0.14946,-0.707888 -0.33212,-1.539697 -0.18267,-0.831809 -0.32134,-1.523163 -0.30816,-1.53634 0.0131,-0.01321 0.57693,0.526795 1.25278,1.199949 l 1.22883,1.223908 -0.4836,0.14058 c -0.26597,0.07732 -0.66046,0.230207 -0.87663,0.339749 -0.38112,0.19313 -0.4811,0.228846 -0.4811,0.171851 z"
       id="path1-2-0" /><path
       style="fill:#000000;stroke-width:0.312113"
       d="m 81.572514,143.41964 c -0.0016,-0.0357 0.184759,-1.0762 0.414387,-2.31223 0.229628,-1.23605 0.510218,-2.74903 0.623538,-3.36219 0.55506,-3.00343 1.322073,-7.11763 1.693497,-9.0838 0.227371,-1.20361 0.578942,-3.08024 0.781267,-4.1703 0.202325,-1.09005 0.534611,-2.85521 0.738407,-3.92255 0.203802,-1.06734 0.775488,-4.10471 1.270416,-6.74969 l 0.89987,-4.80908 0.685948,-0.80638 c 3.271709,-3.84613 5.4147,-6.22626 7.863823,-8.734066 1.56497,-1.602445 1.499173,-1.636935 0.767151,0.40217 -0.209843,0.584526 -0.381409,1.086196 -0.381256,1.114816 1.5e-4,0.0286 0.734082,-0.69472 1.630956,-1.607406 3.656562,-3.721072 7.595012,-7.179771 11.788032,-10.352103 1.17392,-0.888156 1.19431,-0.906798 1.14171,-1.043857 -0.0358,-0.09316 -0.31021,-0.116103 -1.39017,-0.116103 h -1.34564 l -0.77198,0.595276 c -1.86621,1.439083 -4.93277,4.018529 -6.79834,5.718496 -4.336058,3.951141 -7.560569,7.344637 -13.303715,14.000907 -0.956245,1.10829 -3.135078,3.77006 -4.241846,5.18203 -0.471769,0.60187 -0.86815,1.08391 -0.880843,1.07122 -0.01271,-0.0126 0.0083,-0.16256 0.04682,-0.33303 0.04046,-0.1794 0.32295,-0.64799 0.670685,-1.11252 1.048939,-1.40124 2.797612,-3.65084 3.837494,-4.93677 0.55324,-0.68415 1.044225,-1.31588 1.091077,-1.40386 0.04685,-0.088 0.179366,-0.66163 0.294474,-1.27479 0.115109,-0.61316 0.45307,-2.36597 0.751022,-3.89512 l 0.541733,-2.780276 1.42527,-1.399865 c 2.166652,-2.128015 3.936346,-3.79816 7.290225,-6.880153 2.282374,-2.097349 2.962764,-2.711285 2.982704,-2.691359 0.0167,0.01668 -0.99175,2.886535 -2.305218,6.560411 -0.247631,0.692633 -0.434865,1.259342 -0.416076,1.259342 0.01879,0 0.524676,-0.451102 1.124194,-1.00245 2.05609,-1.890899 4.2661,-3.752077 7.65899,-6.450082 l 0.28518,-0.226769 -0.66989,0.01162 c -0.36844,0.0066 -0.70828,-0.01218 -0.75518,-0.04114 -0.11721,-0.07245 -1.94268,-2.634226 -1.95267,-2.740291 -0.004,-0.04686 0.58654,-0.638032 1.31324,-1.313561 0.7267,-0.675521 1.51802,-1.412766 1.75848,-1.638308 0.24046,-0.225561 0.44856,-0.396267 0.46243,-0.37934 0.0139,0.01687 -0.0202,0.513849 -0.0755,1.104289 -0.0555,0.590449 -0.12764,1.435859 -0.16046,1.878695 l -0.0596,0.805157 h 1.77362 1.77362 l 1.13862,-0.763863 1.13863,-0.763862 -0.64524,-0.02437 c -0.54995,-0.02071 -0.66656,-0.05127 -0.7896,-0.206451 -0.0794,-0.100161 -0.74211,-0.851024 -1.47269,-1.668561 -0.73058,-0.817547 -1.32929,-1.527013 -1.33043,-1.576583 -9.4e-4,-0.04958 0.24875,-0.32768 0.55532,-0.618022 0.30658,-0.290341 1.24141,-1.188489 2.07739,-1.995895 0.83598,-0.807396 1.53265,-1.455315 1.54814,-1.439823 0.0155,0.01546 -0.0285,0.898466 -0.0979,1.962155 -0.0694,1.063689 -0.13426,2.194108 -0.14428,2.512041 l -0.0182,0.578059 1.82235,0.02221 1.82235,0.02212 0.73763,-0.467654 c 4.99164,-3.164731 8.90732,-5.385961 12.38441,-7.025244 1.54314,-0.727517 1.77248,-0.818137 1.77248,-0.700338 0,0.04349 -0.288,0.215495 -0.63999,0.382349 -2.62114,1.242444 -7.07421,3.768028 -11.48687,6.514833 l -2.0108,1.251686 0.73081,0.04171 c 0.60459,0.03449 0.79847,0.08135 1.12256,0.271569 0.45244,0.265505 0.34968,0.297071 1.54262,-0.473924 1.18848,-0.768117 3.73794,-2.284409 5.45655,-3.245275 2.44941,-1.369457 7.21539,-3.733839 7.31854,-3.630679 0.0166,0.01659 -0.7036,0.422246 -1.60036,0.90154 -3.26931,1.747335 -7.73029,4.383895 -10.87027,6.424645 l -1.03127,0.670244 0.31284,0.484009 c 0.17205,0.266198 0.40203,0.756308 0.51104,1.089115 0.35719,1.090381 0.22578,3.254479 -0.26741,4.403792 -0.0954,0.222421 -0.11151,0.125354 -0.15723,-0.949666 -0.0437,-1.025994 -0.0901,-1.327451 -0.32403,-2.105784 -0.29392,-0.977662 -0.64842,-1.760484 -0.92044,-2.032503 -0.0934,-0.09335 -0.18331,-0.155963 -0.20003,-0.139243 -0.0167,0.01668 0.13712,0.549361 0.34188,1.183644 0.42327,1.311255 0.51121,1.952052 0.37018,2.697507 -0.10802,0.570936 -0.48572,1.80041 -0.58729,1.911695 -0.0352,0.03861 -0.044,-0.465002 -0.0195,-1.119097 l 0.0445,-1.189248 -0.55313,-1.275726 c -0.30423,-0.701659 -0.58791,-1.310824 -0.6304,-1.353702 -0.0806,-0.08135 -0.73987,0.350249 -3.20115,2.095418 -1.10656,0.784604 -1.34029,0.984953 -1.30724,1.120588 0.0221,0.09082 0.10724,0.388131 0.18916,0.660637 0.11019,0.366622 0.14708,0.753216 0.14188,1.486441 -0.007,1.099434 -0.22113,2.01164 -0.69524,2.972891 l -0.24437,0.495471 0.0395,-0.330314 c 0.25435,-2.127968 0.25244,-2.301195 -0.0383,-3.468362 -0.18194,-0.730245 -0.40003,-1.27999 -0.50779,-1.27999 -0.0916,0 -0.0884,0.11824 0.0189,0.698426 0.0489,0.264559 0.11945,0.856666 0.15676,1.315801 0.0625,0.769139 0.0517,0.88348 -0.13646,1.454135 -0.20798,0.630477 -0.84746,2.014424 -0.90447,1.957422 -0.0172,-0.01725 0.007,-0.232468 0.0535,-0.478264 0.0467,-0.245795 0.12283,-0.787237 0.16926,-1.203203 0.0743,-0.665895 0.0642,-0.838634 -0.0845,-1.445156 -0.27038,-1.102049 -0.33587,-1.3082 -0.41566,-1.3082 -0.10079,0 -2.83237,2.131613 -4.35338,3.397198 -2.91181,2.422836 -5.37036,4.686205 -8.208384,7.556705 -2.721186,2.752336 -2.825765,2.873996 -3.045917,3.543366 -0.103756,0.31546 -0.800154,2.28298 -1.547551,4.37226 -1.948699,5.44741 -2.37788,6.64286 -3.36495,9.37284 -2.286316,6.32337 -4.228764,11.72636 -4.542366,12.63475 -0.148957,0.43148 -0.699089,1.97367 -1.222509,3.42708 -2.754031,7.64726 -3.765062,10.39684 -3.771752,10.25761 z M 114.49093,85.98766 c 0.49226,-0.352282 1.31177,-0.918982 1.82115,-1.259352 0.50938,-0.340361 0.92745,-0.646701 0.92903,-0.680769 9.4e-4,-0.03402 -0.61484,-0.06186 -1.36983,-0.06186 h -1.3727 l -0.75374,0.507861 c -0.41455,0.279329 -0.93451,0.63865 -1.15546,0.798502 l -0.40173,0.290641 0.27786,0.144501 c 0.15282,0.07948 0.44353,0.314728 0.64601,0.522781 0.2025,0.208054 0.39433,0.378281 0.4263,0.378281 0.032,0 0.46087,-0.288232 0.95311,-0.640505 z m -34.490557,22.32805 c 0,-0.0322 0.05399,-0.32639 0.119992,-0.65376 0.236401,-1.17271 2.691471,-13.693859 3.176951,-16.202854 1.66635,-8.61178 2.042471,-10.550204 2.443594,-12.593448 0.245203,-1.249033 0.839383,-4.277661 1.320397,-6.730282 0.481014,-2.45263 1.11251,-5.667052 1.403319,-7.143174 0.290811,-1.476122 0.661996,-3.389916 0.824857,-4.252871 0.408665,-2.165457 1.284619,-5.3306 2.143846,-7.746548 1.595306,-4.485629 3.510713,-7.701325 6.400554,-10.745628 1.843976,-1.942538 4.196447,-4.856955 8.136857,-10.08053 2.60812,-3.457427 4.10161,-5.242014 5.87766,-7.023237 3.5472,-3.557547 6.46938,-5.006572 10.35157,-5.133015 1.51772,-0.04943 2.60528,0.07474 3.87354,0.442273 2.39726,0.694698 4.89966,3.013562 5.58327,5.173773 0.11214,0.354346 0.20388,0.708214 0.20388,0.78638 0,0.07816 -0.12872,0.211435 -0.28605,0.296163 -0.35512,0.191246 -2.45507,2.275925 -3.10211,3.079535 -0.26337,0.327116 -0.60251,0.845928 -0.75365,1.152914 -0.44069,0.895173 -0.42686,1.303241 0.12865,3.797779 0.25422,1.141554 0.46221,2.121503 0.46221,2.177667 0,0.05613 -0.24742,0.348136 -0.54984,0.648824 -1.05064,1.044652 -1.91502,2.64056 -2.46139,4.544496 -0.38532,1.342752 -0.51757,2.2599 -0.62024,4.301511 -0.33858,6.732119 -0.90967,10.572707 -2.15701,14.505911 -0.79194,2.497177 -2.21418,5.617792 -3.47898,7.633425 -2.84145,4.528255 -6.56464,8.440934 -17.24074,18.118212 -5.000689,4.532837 -7.870913,7.202669 -10.508567,9.774879 -0.533814,0.52057 -0.984928,0.931119 -1.002474,0.912337 -0.01754,-0.01874 0.09803,-0.753703 0.256847,-1.633153 l 0.288752,-1.598992 2.359052,-3.273223 c 10.57505,-14.673102 13.85228,-19.680595 17.02245,-26.009681 2.10183,-4.196207 3.58394,-8.360586 4.3841,-12.31827 0.45695,-2.260107 0.57736,-3.256381 0.63386,-5.244358 0.15195,-5.346946 -1.15073,-7.494204 -5.16595,-8.515255 -0.42596,-0.108316 -0.82079,-0.196938 -0.87742,-0.196938 -0.0912,0 -0.24899,0.480203 -0.1803,0.548882 0.0149,0.01486 0.38017,0.116602 0.81181,0.226098 2.7392,0.694857 3.98568,1.862999 4.54824,4.262405 0.16796,0.716381 0.1837,0.988885 0.18134,3.138041 -0.003,2.63497 -0.10194,3.54757 -0.65702,6.05425 -1.30692,5.901901 -3.97106,11.893353 -8.5809,19.297824 -0.62675,1.006697 -3.55266,5.41047 -4.47167,6.730273 -2.231915,3.205312 -3.498581,4.992891 -6.84634,9.66187 -3.02026,4.212242 -7.474278,10.541329 -12.756168,18.126325 -1.297827,1.86371 -1.240779,1.78541 -1.240779,1.70317 z M 123.68607,28.140838 c 0.46472,-0.31628 0.61851,-0.594994 0.61851,-1.120886 0,-0.586131 -0.23793,-0.95571 -0.76556,-1.189101 -0.55387,-0.245002 -1.02915,-0.149246 -1.47572,0.297313 -0.40498,0.404976 -0.5158,0.802634 -0.36445,1.307779 0.10107,0.337353 0.40701,0.689151 0.70639,0.812295 0.34381,0.141424 0.99554,0.08677 1.28083,-0.1074 z m 8.13753,9.661866 c -0.0891,-0.735138 -0.30703,-1.570324 -0.52163,-1.9993 -0.14502,-0.28988 -0.64789,-0.842086 -1.72011,-1.888827 -0.83336,-0.813556 -1.53554,-1.543327 -1.56042,-1.621725 -0.0734,-0.231222 0.23881,-1.097254 0.58186,-1.614096 0.39065,-0.588532 2.07958,-2.423391 2.73495,-2.971239 0.26461,-0.221208 0.54393,-0.454858 0.6207,-0.519217 0.12689,-0.106378 0.17854,-0.03941 0.56792,0.736532 0.88732,1.768211 1.39015,3.882256 1.28387,5.397908 -0.0729,1.040279 -0.32394,2.007362 -0.75993,2.927992 -0.33194,0.700935 -1.07401,1.985519 -1.14698,1.985519 -0.0153,0 -0.0514,-0.195094 -0.0802,-0.433547 z m -2.93582,-1.245372 c 0,-0.01499 -0.14946,-0.707888 -0.33212,-1.539697 -0.18267,-0.831809 -0.32134,-1.523163 -0.30816,-1.53634 0.0131,-0.01321 0.57693,0.526795 1.25278,1.199949 l 1.22883,1.223908 -0.4836,0.14058 c -0.26597,0.07732 -0.66046,0.230207 -0.87663,0.339749 -0.38112,0.19313 -0.4811,0.228846 -0.4811,0.171851 z"
       id="path1" /></g></svg>
